<?xml version="1.0" encoding="UTF-8" standalone="no"?>
<svg
   width="112"
   height="112"
   viewBox="0 0 112 112"
   fill="none"
   version="1.1"
   id="svg11183"
   sodipodi:docname="impulse-used.svg"
   inkscape:version="1.2.2 (732a01da63, 2022-12-09)"
   xmlns:inkscape="http://www.inkscape.org/namespaces/inkscape"
   xmlns:sodipodi="http://sodipodi.sourceforge.net/DTD/sodipodi-0.dtd"
   xmlns="http://www.w3.org/2000/svg"
   xmlns:svg="http://www.w3.org/2000/svg">
  <defs
     id="defs11187">
    <filter
       inkscape:collect="always"
       style="color-interpolation-filters:sRGB"
       id="filter15303"
       x="-0.58709037"
       y="-0.58891244"
       width="2.1741807"
       height="2.1778249">
      <feGaussianBlur
         inkscape:collect="always"
         stdDeviation="4.7074585"
         id="feGaussianBlur15305" />
    </filter>
    <filter
       inkscape:collect="always"
       style="color-interpolation-filters:sRGB"
       id="filter19351"
       x="-0.069779118"
       y="-0.11210311"
       width="1.1395582"
       height="1.2242062">
      <feGaussianBlur
         inkscape:collect="always"
         stdDeviation="0.64182253"
         id="feGaussianBlur19353" />
    </filter>
    <filter
       inkscape:collect="always"
       style="color-interpolation-filters:sRGB"
       id="filter19355"
       x="-0.066128922"
       y="-0.17524077"
       width="1.1322578"
       height="1.3504815">
      <feGaussianBlur
         inkscape:collect="always"
         stdDeviation="0.64182253"
         id="feGaussianBlur19357" />
    </filter>
    <filter
       inkscape:collect="always"
       style="color-interpolation-filters:sRGB"
       id="filter19359"
       x="-0.11130562"
       y="-0.069584"
       width="1.2226112"
       height="1.139168">
      <feGaussianBlur
         inkscape:collect="always"
         stdDeviation="0.64182253"
         id="feGaussianBlur19361" />
    </filter>
    <filter
       inkscape:collect="always"
       style="color-interpolation-filters:sRGB"
       id="filter19363"
       x="-0.17424945"
       y="-0.066618259"
       width="1.3484989"
       height="1.1332365">
      <feGaussianBlur
         inkscape:collect="always"
         stdDeviation="0.64182253"
         id="feGaussianBlur19365" />
    </filter>
    <filter
       inkscape:collect="always"
       style="color-interpolation-filters:sRGB"
       id="filter19367"
       x="-0.069449724"
       y="-0.11113249"
       width="1.1388994"
       height="1.222265">
      <feGaussianBlur
         inkscape:collect="always"
         stdDeviation="0.64182253"
         id="feGaussianBlur19369" />
    </filter>
    <filter
       inkscape:collect="always"
       style="color-interpolation-filters:sRGB"
       id="filter19371"
       x="-0.066427215"
       y="-0.17343799"
       width="1.1328544"
       height="1.346876">
      <feGaussianBlur
         inkscape:collect="always"
         stdDeviation="0.64182253"
         id="feGaussianBlur19373" />
    </filter>
    <filter
       inkscape:collect="always"
       style="color-interpolation-filters:sRGB"
       id="filter19375"
       x="-0.11200477"
       y="-0.069693876"
       width="1.2240095"
       height="1.1393878">
      <feGaussianBlur
         inkscape:collect="always"
         stdDeviation="0.64182253"
         id="feGaussianBlur19377" />
    </filter>
    <filter
       inkscape:collect="always"
       style="color-interpolation-filters:sRGB"
       id="filter19379"
       x="-0.17412076"
       y="-0.066041881"
       width="1.3482415"
       height="1.1320838">
      <feGaussianBlur
         inkscape:collect="always"
         stdDeviation="0.64182253"
         id="feGaussianBlur19381" />
    </filter>
  </defs>
  <sodipodi:namedview
     id="namedview11185"
     pagecolor="#ffffff"
     bordercolor="#000000"
     borderopacity="0.25"
     inkscape:showpageshadow="2"
     inkscape:pageopacity="0.0"
     inkscape:pagecheckerboard="0"
     inkscape:deskcolor="#d1d1d1"
     showgrid="false"
     inkscape:zoom="22.147595"
     inkscape:cx="63.370313"
     inkscape:cy="42.126471"
     inkscape:window-width="1920"
     inkscape:window-height="1057"
     inkscape:window-x="1358"
     inkscape:window-y="-8"
     inkscape:window-maximized="1"
     inkscape:current-layer="svg11183" />
  <path
     opacity="0.498"
     d="M103.951 48.4396L62.5821 7.07107C58.6768 3.16583 52.3452 3.16583 48.4399 7.07108L7.07138 48.4396C3.16613 52.3449 3.16614 58.6765 7.07139 62.5818L48.4399 103.95C52.3452 107.856 58.6769 107.856 62.5821 103.95L103.951 62.5818C107.856 58.6765 107.856 52.3449 103.951 48.4396Z"
     fill="black"
     id="path11155" />
  <path
     d="M61.875 7.77818L103.244 49.1467C106.758 52.6615 106.758 58.36 103.244 61.8747L61.875 103.243C58.3603 106.758 52.6618 106.758 49.1471 103.243L7.77849 61.8747C4.26377 58.36 4.26376 52.6615 7.77848 49.1467L49.147 7.77818C52.6618 4.26346 58.3603 4.26346 61.875 7.77818Z"
     stroke="#556169"
     stroke-width="2"
     id="path11157"
     style="fill:#000000" />
  <path
     d="M47.7568 83.9988C47.6161 83.9184 47.4801 83.7743 47.3346 83.7659C44.7544 83.6002 42.4101 82.6819 40.2317 81.3878C37.3604 79.6819 35.0822 77.3733 33.6315 74.3193C33.0073 73.0048 32.4696 71.6627 32.1977 70.2293C32.2482 70.1993 32.2988 70.1693 32.3493 70.1393C32.4503 70.3013 32.5887 70.4526 32.6476 70.629C33.6436 73.611 35.0978 76.3301 37.3749 78.5366C39.2525 80.3565 41.4622 81.6423 43.9497 82.5006C46.7356 83.4622 49.5731 83.3601 52.4287 83.1237C53.0578 83.072 53.6761 82.8739 54.298 82.7431C54.3245 82.7947 54.3509 82.8475 54.3774 82.8992C54.2535 83 54.1428 83.1657 54.0045 83.1909C52.9231 83.3926 51.8345 83.5618 50.7519 83.7563C50.438 83.8127 50.1325 83.9172 49.8233 84C49.1341 83.9988 48.446 83.9988 47.7568 83.9988Z"
     fill="#556169"
     id="path11159"
     style="filter:url(#filter19367)" />
  <path
     d="M70.3743 55.6086C70.5211 63.4166 63.8343 70.7875 54.6059 70.2389C47.1361 69.7947 41.1434 63.8403 40.7429 56.3001C40.2617 47.2353 47.5307 40.072 56.6436 40.6302C63.7874 41.0672 70.5511 47.042 70.3743 55.6086ZM62.6447 45.9124C61.1062 44.8031 59.4414 44.072 57.583 43.7899C57.1331 43.7215 56.6773 43.5498 56.2358 43.5834C55.0414 43.6747 53.8469 43.8067 52.6669 44.0048C51.1958 44.2521 49.8967 44.9388 48.6938 45.7983C48.5832 45.8776 48.5098 46.1657 48.5663 46.2929C48.9693 47.2053 48.9813 47.2005 48.2885 47.8944C48.1405 48.0432 47.9649 48.1729 47.847 48.3433C47.4886 48.8583 47.0952 48.8764 46.6261 48.4934C46.341 48.2605 46.0463 48.2605 45.8611 48.6146C45.3427 49.6062 44.7617 50.575 44.3527 51.611C43.6743 53.3301 43.7056 55.1549 43.8403 56.9652C43.8896 57.6231 43.9726 58.3085 44.212 58.9136C44.6221 59.9496 45.149 60.9412 45.6626 61.9328C45.9693 62.5258 46.1161 62.551 46.6899 62.1969C47.0832 61.9544 47.4008 61.9148 47.7279 62.3145C47.9926 62.6375 48.3005 62.9316 48.6205 63.2017C49.0342 63.5498 49.098 63.9304 48.7708 64.3433C48.3991 64.8151 48.6024 65.1056 49.0379 65.3373C49.6718 65.6747 50.2961 66.0384 50.9528 66.3265C52.2904 66.9136 53.699 67.2473 55.1641 67.2005C56.2057 67.1669 57.257 67.0948 58.2819 66.916C59.7807 66.6543 61.1351 66 62.3897 65.1405C62.6519 64.9604 62.7313 64.8079 62.54 64.4886C62.0866 63.7335 62.1094 63.7191 62.7529 63.0756C62.8744 62.9544 62.9959 62.8319 63.1174 62.7107C63.8271 62.0024 63.8379 61.9832 64.6811 62.461C64.9578 62.6183 65.1033 62.5798 65.2308 62.3325C65.7529 61.3217 66.3291 60.3337 66.7741 59.2905C67.3756 57.88 67.3972 56.3529 67.3563 54.8535C67.3298 53.892 67.2432 52.8884 66.9317 51.9904C66.5444 50.8728 65.8936 49.8475 65.368 48.7755C65.1851 48.4034 64.9686 48.2893 64.6174 48.5726C64.0893 48.9988 63.6515 48.8776 63.2834 48.3433C63.2305 48.2665 63.1511 48.2053 63.0837 48.1381C62.1262 47.1873 62.1262 47.1873 62.6447 45.9124Z"
     fill="#556169"
     id="path11161"
     style="fill:#556169;stroke:#00ffff;stroke-opacity:1;fill-opacity:1" />
  <path
     d="M73.7014 69.4706C72.5587 69.1356 71.6061 68.8355 70.6401 68.5834C70.0195 68.4214 69.3819 68.3181 68.748 68.2161C68.3427 68.1501 68.054 68.3553 68.0083 68.7539C67.9361 69.3733 67.8832 70.0012 67.8988 70.6242C67.9193 71.4214 68.0035 72.2185 68.0829 73.0132C68.1274 73.4562 68.2164 73.8956 68.315 74.5282C67.7304 74.2281 67.2962 73.9952 66.8523 73.7803C65.7445 73.2437 64.6342 72.7107 63.5192 72.1885C63.3363 72.1032 63.121 72.03 62.925 72.0372C62.4619 72.0552 62.2658 71.8379 62.2129 71.2677C62.6495 71.2941 63.0681 71.2485 63.4422 71.3553C64.3167 71.6062 65.1683 71.934 66.0308 72.2269C66.714 72.4586 66.963 72.2725 67.0183 71.5306C67.0893 70.5834 67.1711 69.6375 67.2661 68.6927C67.3467 67.8908 67.6378 67.5846 68.4485 67.6158C69.2833 67.6482 70.1133 67.7983 70.9469 67.8823C71.1466 67.9028 71.3522 67.8679 71.5555 67.8583C71.5243 67.6651 71.5218 67.4622 71.4581 67.2809C71.1718 66.461 70.8254 65.6591 70.5836 64.8259C70.3683 64.0864 70.6317 63.7611 71.4352 63.6446C72.1906 63.5354 72.9509 63.467 73.7063 63.3577C73.8963 63.3301 74.0743 63.2149 74.2584 63.1392C74.1778 62.9544 74.1285 62.7479 74.013 62.5882C73.5559 61.9556 73.0567 61.3517 72.6141 60.7083C72.1546 60.0408 72.2147 59.5066 72.851 59.0132C73.6942 58.3601 74.5783 57.7575 75.4624 57.1584C75.8666 56.8835 75.9099 56.6699 75.5238 56.3301C74.8069 55.6999 74.1116 55.0456 73.4296 54.3781C72.5106 53.4766 72.4384 52.9892 73.0435 51.8439C73.5246 50.9364 74.0238 50.0372 74.535 49.1464C74.7672 48.7419 74.7467 48.515 74.2548 48.3349C73.2444 47.9628 72.2388 47.5666 71.2608 47.1164C69.9497 46.5114 69.9665 45.958 70.2059 44.6518C70.2913 44.1861 70.4525 43.7335 70.5475 43.2689C70.6389 42.8247 70.6907 42.3733 70.7725 41.8379C70.5427 41.8523 70.3491 41.8643 70.1542 41.8751C69.0355 41.9388 67.9181 42.0372 66.7994 42.0504C66.2244 42.0576 65.9622 41.6506 65.9983 41.0852C66.0681 40.0048 66.1498 38.9255 66.2196 37.8451C66.2353 37.6014 66.222 37.3565 66.222 36.9916C66.0151 37.1224 65.8684 37.2113 65.7252 37.3061C64.7437 37.9592 63.785 38.6506 62.7734 39.2545C62.1732 39.6122 61.7666 39.4934 61.4298 38.8859C60.9535 38.0252 60.5625 37.1152 60.1415 36.2233C59.7795 35.4538 59.7518 35.4454 59.1359 36.0012C58.4323 36.6362 57.7262 37.2677 57.0213 37.9015C56.9467 37.8655 56.8709 37.8307 56.7964 37.7947C56.8649 37.5162 56.8529 37.174 57.0153 36.97C57.9391 35.8067 58.9026 34.677 59.8552 33.5366C59.9707 33.3985 60.097 33.2689 60.2811 33.0636C60.5072 33.9099 60.6936 34.653 60.9053 35.3889C61.1507 36.2425 61.3793 37.1044 61.6872 37.9364C62.012 38.8139 62.4787 38.9436 63.1968 38.2809C64.3299 37.2341 65.4438 36.1548 66.459 34.9952C67.4742 33.8355 68.3583 32.5606 69.3014 31.3373C69.4144 31.1909 69.5383 31.0528 69.7609 30.9568C69.7404 31.066 69.7392 31.1812 69.6983 31.2821C69.0235 32.9351 68.2813 34.5642 67.6859 36.2449C67.2192 37.5642 66.8956 38.9388 66.5805 40.3061C66.3748 41.1993 66.9931 41.6422 67.9674 41.3805C69.3976 40.9964 70.829 40.6146 72.2616 40.2365C72.3446 40.2149 72.4408 40.2425 72.6189 40.2521C72.323 41.0036 72.0403 41.6975 71.7769 42.3973C71.4773 43.1957 71.167 43.9916 70.9144 44.8055C70.6257 45.7323 70.8663 46.2473 71.7841 46.5306C72.8185 46.8499 73.8795 47.0876 74.9368 47.3265C75.5106 47.4562 76.1012 47.5126 76.6833 47.6062C77.1585 47.6831 77.0791 47.9087 76.8445 48.1921C76.1505 49.0288 75.442 49.8559 74.7804 50.7179C74.3534 51.2737 73.9973 51.8835 73.6112 52.4706C73.2853 52.964 73.4272 53.4069 73.8422 53.7347C74.6156 54.3457 75.4119 54.9316 76.2214 55.4946C76.9191 55.9796 77.648 56.4166 78.4455 56.928C77.624 57.3121 76.865 57.6506 76.1216 58.0204C75.2868 58.4358 74.4532 58.8583 73.6425 59.3193C73.0122 59.6771 72.8943 60.132 73.3695 60.6819C74.1525 61.5894 75.015 62.4298 75.8498 63.2941C76.0831 63.5354 76.3369 63.7563 76.7062 64.1044C76.361 64.1248 76.183 64.144 76.0061 64.144C74.8009 64.1464 73.5968 64.1416 72.3915 64.1464C72.1834 64.1476 71.9645 64.1488 71.7684 64.2101C71.1429 64.4034 71.0203 64.6194 71.3258 65.2101C71.9453 66.4058 72.6189 67.5738 73.2732 68.7527C73.3779 68.946 73.4982 69.1332 73.7014 69.4706Z"
     fill="#556169"
     id="path11163" />
  <path
     d="M51.4219 75.3733C51.9043 74.9448 52.3481 74.5378 52.8064 74.1477C53.2996 73.7275 53.7856 73.2941 54.316 72.9268C54.4772 72.8151 54.7755 72.9016 55.0113 72.898C54.9054 73.108 54.8417 73.3577 54.6877 73.5234C53.8998 74.3709 53.0723 75.1813 52.2928 76.036C51.9079 76.4562 51.6 76.946 51.2475 77.3962C51.1525 77.5186 51.0202 77.611 50.8422 77.7755C50.6136 76.8883 50.4308 76.1008 50.2058 75.3265C49.9581 74.473 49.7018 73.6194 49.3915 72.7875C49.1569 72.1585 48.6686 72.042 48.1153 72.4538C46.5383 73.6254 45.2705 75.1008 44.0628 76.6302C43.1799 77.7491 42.3223 78.8884 41.4538 80.018C41.4045 79.9964 41.3539 79.9736 41.3046 79.952C41.5175 79.4358 41.7232 78.9172 41.9446 78.4058C42.9393 76.1032 43.9076 73.7923 44.3828 71.3121C44.4393 71.0156 44.556 70.7239 44.5716 70.4262C44.6137 69.6326 44.3864 69.3902 43.6105 69.473C42.9718 69.5414 42.3403 69.6951 41.7112 69.8355C41.1928 69.9508 40.6815 70.0984 40.1691 70.2377C39.6651 70.3745 39.1635 70.5186 38.4947 70.7059C38.71 70.1477 38.87 69.7395 39.0264 69.3289C39.4161 68.2989 39.8167 67.2737 40.1896 66.2377C40.5841 65.1404 40.0825 64.4034 38.8147 64.1501C37.4362 63.8739 36.0577 63.5918 34.6816 63.3013C34.4844 63.2593 34.3003 63.1537 34.0213 63.042C34.1993 62.8127 34.3316 62.6435 34.4615 62.4718C35.4828 61.1224 36.5088 59.7743 37.5228 58.4202C37.8392 57.9964 37.755 57.5594 37.3845 57.2401C36.7085 56.6579 36.0108 56.0948 35.2831 55.5798C34.6023 55.0984 33.8661 54.6951 33.16 54.2461C33.0457 54.1729 32.9652 54.0456 32.8689 53.9436C32.9808 53.8583 33.083 53.7527 33.2069 53.6903C34.5878 53.0072 35.9952 52.3745 37.346 51.6374C38.2301 51.1549 38.2626 50.6038 37.5469 49.8583C36.7145 48.9916 35.846 48.1585 34.9968 47.3073C34.8272 47.1368 34.6696 46.9544 34.494 46.7647C35.3937 46.7647 36.2382 46.7875 37.0802 46.7587C37.8789 46.7311 38.6788 46.6747 39.4727 46.581C39.9767 46.5222 40.1318 46.2173 39.8901 45.7695C39.2225 44.533 38.5236 43.3133 37.838 42.0864C37.7478 41.9256 37.6624 41.7623 37.4927 41.4478C37.8596 41.5306 38.0858 41.575 38.3071 41.6326C39.6278 41.9772 40.9438 42.3397 42.2693 42.6639C42.6891 42.7671 43.0608 42.6014 43.1282 42.1344C43.2112 41.5558 43.2641 40.9664 43.2485 40.3841C43.2268 39.605 43.1366 38.8283 43.0584 38.0516C43.0187 37.6566 42.9297 37.2665 42.8876 36.8715C42.8744 36.7383 42.9405 36.5978 42.9706 36.461C43.0921 36.491 43.2232 36.5006 43.3315 36.5558C44.669 37.2281 46.0006 37.9099 47.3394 38.5786C47.592 38.7047 47.8987 38.7383 48.1261 38.8943C48.2993 39.0132 48.3847 39.2569 48.5098 39.4454C48.4605 39.5042 48.41 39.563 48.3606 39.6218C47.7279 39.4574 47.0904 39.3121 46.4649 39.1236C45.8671 38.9436 45.2897 38.6939 44.6871 38.533C44.568 38.5006 44.2613 38.7143 44.242 38.8427C44.1482 39.4814 44.1386 40.132 44.0688 40.7755C44.0027 41.3793 43.9401 41.9904 43.797 42.5786C43.6923 43.012 43.3772 43.3157 42.8732 43.2725C41.9253 43.1909 40.9811 43.084 40.0332 43.0072C39.4703 42.9616 39.4378 43.0444 39.6459 43.5666C39.9827 44.4105 40.3038 45.2617 40.6046 46.12C40.7826 46.6278 40.6046 46.9772 40.0621 47.0876C39.1335 47.2773 38.1904 47.4009 37.2534 47.5546C37.1078 47.5786 36.9635 47.611 36.6916 47.6651C37.2606 48.4262 37.7778 49.1164 38.2939 49.8079C39.0841 50.8643 38.9651 51.461 37.862 52.2029C36.9924 52.7875 36.1467 53.4046 35.2241 54.0528C35.3685 54.2317 35.4659 54.3865 35.5946 54.5066C36.2225 55.0912 36.854 55.6747 37.4952 56.2449C38.6222 57.2461 38.7377 57.7959 38.034 59.138C37.583 59.9976 37.1235 60.8547 36.6183 61.6831C36.338 62.1416 36.4631 62.3565 36.9106 62.5306C37.8464 62.8931 38.7786 63.2629 39.706 63.6459C40.9341 64.1537 41.301 64.9616 40.9582 66.2557C40.7309 67.114 40.5516 67.9844 40.3099 69.0216C41.1783 68.958 41.9434 68.904 42.7072 68.8451C42.7818 68.8391 42.8527 68.7899 42.9273 68.7827C44.4164 68.6423 45.3246 68.569 45.1406 70.5462C45.06 71.4142 44.9746 72.2821 44.9 73.1501C44.8808 73.3697 44.8976 73.5918 44.8976 73.9484C45.155 73.7659 45.3138 73.6507 45.475 73.5378C46.3338 72.9376 47.1722 72.3037 48.0599 71.7491C48.92 71.2125 49.4601 71.3781 49.9172 72.2833C50.3863 73.2149 50.7977 74.1753 51.2367 75.1212C51.2559 75.1681 51.298 75.2089 51.4219 75.3733Z"
     fill="#556169"
     id="path11165" />
  <path
     d="M38.0677 36.6482C41.9337 28.2941 53.9275 25.2353 61.3612 30.4405C60.8404 30.7599 60.3821 30.9375 59.8059 30.527C58.3216 29.473 56.6243 28.9411 54.8369 28.7167C53.8565 28.5942 52.8582 28.491 51.8754 28.5378C48.9296 28.6794 46.2147 29.5534 43.7621 31.2293C42.1154 32.3553 40.7273 33.7083 39.7072 35.4273C39.6206 35.5738 39.528 35.7215 39.4679 35.8799C39.2261 36.5078 38.7738 36.7479 38.0677 36.6482Z"
     fill="#556169"
     id="path11167"
     style="filter:url(#filter19355)" />
  <path
     d="M80.7358 61.2197C80.245 60.7611 80.1536 60.2701 80.4375 59.8403C81.5706 58.1272 82.2213 56.2521 82.3801 54.2053C82.4342 53.5054 82.5786 52.8031 82.5533 52.1068C82.4619 49.653 81.9543 47.2761 80.7045 45.1452C79.9599 43.8751 79.0975 42.641 78.1039 41.5582C77.3353 40.7203 76.3189 40.084 75.3409 39.473C74.7515 39.1044 74.2716 38.7851 74.381 37.8955C77.7046 39.5342 80.0526 42.0756 81.5405 45.3409C83.9931 50.7275 83.7646 56.0336 80.7358 61.2197Z"
     fill="#556169"
     id="path11169"
     style="filter:url(#filter19379)" />
  <path
     d="M73.1193 74.1165C73.0796 74.2761 73.0735 74.3866 73.0266 74.4766C72.0174 76.4214 70.5956 78.024 68.8972 79.3926C67.153 80.7983 65.1731 81.7803 63.0344 82.3758C60.6804 83.03 58.2759 83.1741 55.8341 82.7803C53.8938 82.4682 52.0907 81.8295 50.3863 80.8848C50.2046 80.7839 50.0807 80.5786 49.9304 80.4214C50.1373 80.3241 50.3406 80.1621 50.5535 80.1477C50.7796 80.1321 51.0454 80.2065 51.2415 80.3265C52.549 81.1309 53.9251 81.7683 55.46 81.9652C56.7398 82.1297 58.0353 82.3902 59.3103 82.3277C63.3291 82.1297 66.8295 80.6135 69.6634 77.7443C70.4549 76.9436 71.0792 75.952 71.6542 74.9748C72.009 74.377 72.4709 74.2197 73.1193 74.1165Z"
     fill="#556169"
     id="path11171"
     style="filter:url(#filter19371)" />
  <path
     d="M30.3934 49.6807C30.8914 50.1284 30.9756 50.6326 30.6833 51.072C29.5562 52.7683 28.9079 54.6266 28.7599 56.6579C28.6986 57.5102 28.5181 58.3709 28.5867 59.2113C28.8297 62.1873 29.6669 64.9736 31.4507 67.4286C32.5946 69.0036 33.9238 70.3685 35.6271 71.3433C35.7089 71.3902 35.7822 71.4646 35.8701 71.4898C36.54 71.6783 36.7987 72.1405 36.7722 72.8031C35.1086 72.5762 31.3136 69.3241 29.6609 65.7155C27.1781 60.2881 27.3297 54.9544 30.3934 49.6807Z"
     fill="#556169"
     id="path11173"
     style="filter:url(#filter19363)" />
  <path
     d="M40.8391 32.2761C40.6815 32.3781 40.5372 32.521 40.3652 32.5762C35.0485 34.2713 31.0574 37.4766 28.8682 42.6927C28.2054 44.2725 27.7098 45.9208 27.7255 47.6663C27.7387 49.2041 27.7531 50.7431 27.8205 52.2797C27.8433 52.8031 28.0346 53.3193 28.1296 53.8415C28.1489 53.9472 28.0767 54.0684 28.0454 54.1837C27.9528 54.0936 27.7988 54.0156 27.7784 53.9124C27.5811 52.8896 27.4019 51.8631 27.2275 50.8367C27.1397 50.3169 27.0182 49.7947 27.0049 49.2725C26.9424 46.94 27.4777 44.7131 28.3437 42.569C29.2687 40.2809 30.6388 38.2725 32.3926 36.5306C34.097 34.8355 36.1167 33.6326 38.3672 32.8127C39.1431 32.5306 39.9382 32.3013 40.7236 32.0468C40.7621 32.1236 40.8006 32.2005 40.8391 32.2761Z"
     fill="#556169"
     id="path11175"
     style="filter:url(#filter19359)" />
  <path
     d="M70.349 78.581C70.4946 78.491 70.6293 78.3674 70.7869 78.3145C73.3863 77.455 75.7836 76.2269 77.8489 74.413C79.8769 72.6327 81.3504 70.4646 82.3597 67.9604C83.2498 65.7503 83.5818 63.449 83.5156 61.0996C83.4795 59.8139 83.2161 58.5354 83.0633 57.2533C83.0405 57.0576 83.0597 56.8559 83.1463 56.6591C84.8941 61.6639 84.1856 66.4118 81.4984 70.8727C78.9676 75.0744 75.2194 77.6471 70.4717 78.7611C70.4308 78.7011 70.3899 78.6411 70.349 78.581Z"
     fill="#556169"
     id="path11177"
     style="filter:url(#filter19375)" />
  <path
     d="M78.8353 40.7407C78.7258 40.617 78.561 40.5102 78.5165 40.3673C77.7166 37.7947 76.4909 35.4502 74.7503 33.3877C73.1277 31.4646 71.1501 29.9904 68.8274 29.0276C67.6426 28.5366 66.4157 28.0432 65.1611 27.8463C63.5913 27.6014 61.9735 27.5954 60.3773 27.6134C59.3957 27.6242 58.4178 27.8763 57.4363 28.0072C57.2137 28.0372 56.9828 28.012 56.7603 27.952C64.4225 24.8979 76.4223 29.2005 78.8353 40.7407Z"
     fill="#556169"
     id="path11179"
     style="filter:url(#filter19351)" />
  <path
     d="M55.5357 45.8259C61.081 45.922 64.9349 49.9376 65.1803 54.9232C65.4498 60.3962 61.4551 65.1729 55.1977 65.006C50.0783 64.8704 46.2111 61.0744 45.9621 55.9388C45.6831 50.2329 49.9821 45.9412 55.5357 45.8259Z"
     fill="#556169"
     id="path11181"
     style="filter:url(#filter15303)" />
  <path
     style="fill:#333333;fill-opacity:1;stroke:#00ffff;stroke-width:0.127708;stroke-opacity:1"
     d="m 41.568985,79.59028 c 0,-0.04975 0.353271,-0.938458 0.785046,-1.974913 1.287086,-3.089593 2.279948,-6.324999 2.279948,-7.429595 0,-0.497091 -0.302411,-0.776422 -0.840576,-0.776422 -0.50705,0 -2.294443,0.383477 -3.931646,0.843517 -0.622898,0.175029 -1.149201,0.301082 -1.169562,0.280118 -0.02036,-0.02096 0.303942,-0.92888 0.720675,-2.017592 1.011643,-2.642907 1.075415,-2.90884 0.835345,-3.483409 -0.107108,-0.256346 -0.355222,-0.543186 -0.562618,-0.650435 -0.204057,-0.105522 -1.481977,-0.423005 -2.839823,-0.70552 -1.357846,-0.282513 -2.514025,-0.559174 -2.569287,-0.614799 -0.05526,-0.05563 0.700913,-1.156502 1.680389,-2.446392 2.199462,-2.896508 2.188015,-2.843886 0.854983,-3.930237 -1.207974,-0.984437 -1.618604,-1.278933 -2.809578,-2.014981 -0.544356,-0.336423 -0.989738,-0.649553 -0.989738,-0.695843 0,-0.04629 1.061006,-0.61375 2.357792,-1.261019 2.507927,-1.251791 2.851507,-1.529086 2.690323,-2.171294 -0.05268,-0.209912 -0.757714,-1.028046 -1.746039,-2.02615 l -1.657675,-1.674076 2.407549,-0.06312 c 2.551188,-0.06689 2.973216,-0.158968 2.970321,-0.648058 -9.21e-4,-0.155567 -0.54299,-1.245449 -1.204597,-2.42196 -0.661608,-1.176511 -1.163705,-2.138739 -1.115772,-2.138284 0.04793,4.54e-4 1.064118,0.258283 2.258189,0.572954 2.204224,0.580873 2.678071,0.655092 2.975983,0.466134 0.418777,-0.265619 0.445074,-2.255648 0.0707,-5.350063 -0.06389,-0.528077 -0.04344,-0.668563 0.09631,-0.6615 0.09758,0.0049 1.297703,0.567475 2.666934,1.250096 1.71548,0.855241 2.503615,1.314369 2.534876,1.476693 0.05455,0.283248 -0.0072,0.271923 -2.193873,-0.402572 -1.137826,-0.350965 -1.564075,-0.43312 -1.72395,-0.332273 -0.164508,0.103769 -0.246564,0.495226 -0.363982,1.736411 -0.181946,1.923285 -0.348132,2.598861 -0.683442,2.778314 -0.175547,0.09395 -0.640951,0.09461 -1.541691,0.0022 -1.913588,-0.196372 -2.284837,-0.180102 -2.284837,0.100133 0,0.127896 0.229874,0.842551 0.510832,1.588124 0.562402,1.492434 0.623289,1.941761 0.287343,2.120508 -0.122919,0.0654 -0.998466,0.243769 -1.94566,0.396372 -0.947194,0.152602 -1.736355,0.291643 -1.753692,0.30898 -0.01734,0.01734 0.42314,0.644979 0.978838,1.39476 0.555698,0.749781 1.048367,1.482985 1.094819,1.629344 0.174723,0.550503 -0.19422,1.005568 -1.650429,2.03568 -0.779432,0.551363 -1.532086,1.092608 -1.672564,1.202765 -0.246628,0.193393 -0.20183,0.251938 1.301957,1.70148 0.974824,0.93966 1.589153,1.632877 1.642333,1.853231 0.144228,0.597615 -0.0379,1.123612 -0.973561,2.811682 -0.535796,0.966657 -0.886073,1.742172 -0.861966,1.908399 0.0333,0.229615 0.354993,0.407489 1.787236,0.988214 2.926844,1.186737 3.016455,1.334477 2.40758,3.969385 -0.21275,0.920678 -0.386818,1.727293 -0.386818,1.792476 0,0.159213 0.762484,0.149216 2.509625,-0.0329 1.38209,-0.144067 1.469247,-0.138997 1.795291,0.10443 0.485752,0.362666 0.565301,0.81829 0.409554,2.345732 -0.0752,0.737515 -0.117919,1.64435 -0.09493,2.01519 l 0.0418,0.674252 1.234656,-0.889513 c 2.287472,-1.64802 2.756509,-1.843881 3.280347,-1.369814 0.129808,0.117475 0.598486,0.988255 1.041507,1.935068 0.443021,0.946812 0.849228,1.721477 0.902683,1.721477 0.05345,0 0.403532,-0.277357 0.777949,-0.616348 1.721226,-1.558368 2.660235,-2.147251 2.660235,-1.668317 0,0.07798 -0.59197,0.753241 -1.31549,1.50057 -0.723519,0.74733 -1.592446,1.722558 -1.930947,2.167173 -0.338502,0.444616 -0.655349,0.760694 -0.704108,0.702395 -0.04876,-0.0583 -0.305323,-0.910559 -0.570145,-1.893911 -0.799957,-2.970452 -1.150413,-3.608062 -1.878487,-3.417667 -0.389462,0.101847 -2.127025,1.664247 -3.091644,2.779977 -0.482772,0.5584 -1.45556,1.763612 -2.161752,2.678248 -1.38743,1.796954 -1.629069,2.085681 -1.629069,1.946529 z"
     id="path57980" />
  <path
     style="fill:#333333;fill-opacity:1;stroke:#00ffff;stroke-width:0.0451516;stroke-opacity:1"
     d="m 67.366232,74.014721 c -1.603078,-0.804757 -3.915819,-1.888797 -4.172012,-1.955527 -0.137084,-0.03571 -0.321727,-0.06492 -0.410318,-0.06492 -0.271486,0 -0.452512,-0.189819 -0.518994,-0.544202 l -0.02951,-0.157292 0.511018,0.01707 c 0.577338,0.01929 0.960256,0.121258 2.460662,0.655283 1.068388,0.380261 1.251896,0.421629 1.468626,0.331074 0.287659,-0.120192 0.322391,-0.240273 0.420355,-1.4533 0.125651,-1.555854 0.205561,-2.299594 0.272562,-2.536777 0.06771,-0.239705 0.23197,-0.476138 0.389272,-0.560323 0.266502,-0.142628 0.848214,-0.129109 2.29486,0.05333 0.646954,0.08159 1.469613,0.121777 1.517271,0.07412 0.05622,-0.05622 -0.120672,-0.693312 -0.405695,-1.4611 -0.725812,-1.955175 -0.766475,-2.250492 -0.348651,-2.532064 0.224852,-0.151527 0.360038,-0.178974 1.742991,-0.353872 1.003929,-0.126963 1.312837,-0.182104 1.500234,-0.267794 l 0.235988,-0.10791 -0.07168,-0.172301 c -0.136585,-0.328309 -0.208717,-0.436549 -0.908498,-1.363268 -0.826597,-1.09466 -0.978655,-1.376989 -0.95059,-1.764981 0.0144,-0.19911 0.05224,-0.313029 0.152013,-0.457688 0.1461,-0.211825 1.015723,-0.878548 2.232389,-1.711529 1.021147,-0.699121 1.132946,-0.812165 1.041383,-1.052992 -0.02201,-0.05789 -0.453017,-0.489656 -0.957792,-0.959472 -1.776666,-1.65362 -2.022136,-1.934007 -2.125788,-2.42817 -0.103974,-0.495699 0.03585,-0.829946 1.285428,-3.072702 0.396401,-0.711468 0.686066,-1.282537 0.698835,-1.377742 0.03467,-0.258511 -0.100119,-0.351634 -1.012205,-0.699292 -1.001566,-0.381763 -2.186742,-0.883346 -2.632295,-1.114022 -0.378528,-0.195975 -0.685389,-0.468909 -0.816797,-0.726489 -0.198201,-0.388506 -0.144559,-1.068401 0.186387,-2.362433 0.182572,-0.713875 0.397631,-1.986223 0.344672,-2.039181 -0.01717,-0.01717 -0.584684,0.0048 -1.26115,0.04874 -0.676465,0.04397 -1.615983,0.08986 -2.087818,0.101976 -0.999185,0.02565 -1.0976,-0.0012 -1.275534,-0.348218 -0.130718,-0.254924 -0.130106,-0.366386 0.0134,-2.440883 0.06324,-0.91425 0.108959,-1.798451 0.101592,-1.96489 l -0.0134,-0.302616 -1.490004,0.992886 c -2.275668,1.516425 -2.377237,1.571068 -2.726037,1.466565 -0.265925,-0.07967 -0.495892,-0.369014 -0.850087,-1.06957 -0.324073,-0.640974 -0.82616,-1.709657 -0.82616,-1.758464 0,-0.01475 0.195262,-0.021 0.433916,-0.01389 l 0.433915,0.01292 0.254647,0.77006 c 0.381227,1.152844 0.564794,1.399627 1.012416,1.361065 0.31361,-0.02702 0.553117,-0.211564 1.622394,-1.250106 l 0.930338,-0.903595 h 1.263591 1.263591 l -0.158339,0.48538 c -0.2321,0.71149 -0.825773,3.101133 -0.856294,3.446737 -0.03167,0.358676 0.02984,0.572444 0.217516,0.755937 0.178018,0.174044 0.464855,0.251814 0.818729,0.221978 0.154729,-0.01304 1.279184,-0.290092 2.498787,-0.615659 2.149048,-0.573677 2.536864,-0.657156 2.48777,-0.5355 -0.492068,1.219354 -1.21701,3.138124 -1.502667,3.977247 -0.362777,1.065663 -0.370524,1.466387 -0.03552,1.837199 0.281532,0.311622 0.835519,0.503068 2.815436,0.972953 0.929038,0.220486 1.486716,0.327357 2.716529,0.520587 0.3702,0.05817 0.46782,0.120769 0.429071,0.275159 -0.01564,0.06232 -0.396733,0.557196 -0.846869,1.099722 -1.190317,1.434627 -1.549606,1.907881 -2.13251,2.808935 -0.572514,0.884994 -0.657703,1.093769 -0.573658,1.405888 0.07518,0.279192 0.277778,0.474819 1.236774,1.194211 1.082991,0.812407 1.875022,1.359117 2.887834,1.993367 0.436212,0.273168 0.794235,0.507644 0.795607,0.521058 0.0014,0.01342 -0.40895,0.21487 -0.911826,0.447679 -1.728449,0.800191 -3.838027,1.897846 -4.100019,2.133321 -0.202007,0.181559 -0.268401,0.316251 -0.268401,0.544494 0,0.1243 0.03662,0.289299 0.08546,0.385031 0.123413,0.24191 0.937065,1.124725 2.283387,2.477482 l 1.175553,1.181171 -0.334162,0.02663 c -0.183789,0.01465 -1.238551,0.02663 -2.343917,0.02663 -2.242935,0 -2.35533,0.01283 -2.664104,0.304038 -0.13879,0.130896 -0.153134,0.166089 -0.131981,0.323802 0.01305,0.09732 0.140497,0.407313 0.283208,0.688873 0.282635,0.557621 1.735353,3.180393 2.018168,3.643648 0.09642,0.157943 0.16896,0.293523 0.161193,0.30129 -0.0078,0.0078 -0.420361,-0.107169 -0.916876,-0.255412 -1.991902,-0.594718 -3.510666,-0.942592 -4.115202,-0.942592 -0.286429,0 -0.487947,0.144827 -0.554312,0.398372 -0.226074,0.863719 -0.139385,3.555351 0.17258,5.35846 0.04726,0.273168 0.08288,0.499596 0.07914,0.503174 -0.0037,0.0036 -0.413154,-0.197493 -0.909822,-0.446823 z"
     id="path57982" />
  <path
     style="fill:#333333;fill-opacity:1;stroke:#00ffff;stroke-width:0.0451516;stroke-opacity:1"
     d="m 83.578902,80.155432 c 21.092008,-21.101316 19.765328,-19.743836 20.353628,-20.82619 0.91856,-1.689963 1.19066,-3.665345 0.7676,-5.572676 -0.24996,-1.126962 -0.69844,-2.105995 -1.40808,-3.073861 -0.15792,-0.215387 -2.7556,-2.848827 -7.13729,-7.235549 l -6.889006,-6.896911 h 1.377175 1.377175 l 6.234127,6.242213 c 3.428769,3.433217 6.336509,6.374281 6.461649,6.535698 1.04062,1.342287 1.70294,2.842591 2.00699,4.546298 0.13849,0.776003 0.14958,2.383759 0.0217,3.152055 -0.28771,1.729123 -0.94388,3.243764 -2.00493,4.628042 -0.19078,0.248898 -6.905479,6.997407 -19.104538,19.200731 L 66.824776,99.672224 H 65.447748 64.07072 Z"
     id="path57984" />
  <path
     style="fill:#333333;fill-opacity:1;stroke:#00ffff;stroke-width:0.127708;stroke-opacity:1"
     d="M 81.738489,82.148233 C 103.89858,59.953743 103.48497,60.37844 104.06873,59.219254 c 0.60539,-1.202147 0.83927,-2.240161 0.84158,-3.735182 0.002,-1.437252 -0.21515,-2.387556 -0.84603,-3.698439 -0.44022,-0.914736 -0.78031,-1.278004 -7.56215,-8.077537 l -7.101201,-7.119727 h 1.275007 1.275007 l 5.433463,5.459522 c 7.120974,7.155119 7.623464,7.693889 8.193164,8.784686 0.78394,1.501004 1.12254,2.901838 1.12254,4.644046 0,2.009328 -0.39587,3.463256 -1.42138,5.220326 -0.32183,0.551402 -5.09431,5.406609 -19.453881,19.791078 L 66.797408,99.548461 h -1.216089 -1.216088 z"
     id="path57986" />
  <path
     style="fill:#333333;fill-opacity:1;stroke:#00ffff;stroke-width:0.127708;stroke-opacity:1"
     d="m 54.148233,106.74529 c -1.498147,-0.2413 -3.016398,-0.84427 -4.231889,-1.68069 C 49.477312,104.76249 40.238861,95.60477 27.581204,82.924634 11.140183,66.454416 5.8932422,61.125193 5.5687641,60.566996 4.5509459,58.816054 4.0347501,56.362944 4.2758527,54.422709 4.454587,52.984373 4.7030348,52.19027 5.4005696,50.827822 L 5.9890164,49.678449 27.514463,28.117244 C 39.353458,16.25858 49.355986,6.3387373 49.742303,6.073148 51.605651,4.792114 53.25925,4.2606443 55.425314,4.2466191 c 2.143894,-0.013882 3.940985,0.5186045 5.685432,1.6846196 0.564461,0.377294 5.59071,5.3096083 15.804773,15.5094013 l 14.977092,14.956167 -1.305213,0.03667 -1.305212,0.03667 L 74.780203,21.990338 60.278221,7.5105302 59.181737,6.9768246 C 56.615186,5.727575 53.765546,5.8157913 51.402509,7.2176458 50.726193,7.6188651 46.583006,11.704147 29.038633,29.26896 12.303572,46.023521 7.4184294,50.984348 7.1170039,51.530217 c -1.5288695,2.768718 -1.321026,6.159223 0.5352547,8.73149 0.3106847,0.43052 10.1235504,10.326828 21.8063684,21.991795 22.861385,22.826458 21.53824,21.574988 23.568929,22.292178 1.051754,0.37145 3.136313,0.46001 4.313379,0.18325 1.77005,-0.41619 2.611286,-0.95567 4.736554,-3.03748 l 1.926977,-1.887573 h 1.328171 1.328172 l -2.169629,2.179053 c -1.193296,1.19848 -2.514413,2.44055 -2.935817,2.76016 -1.7019,1.29081 -3.531265,1.93984 -5.683071,2.01628 -0.737514,0.0262 -1.513341,0.0199 -1.724059,-0.0141 z"
     id="path57988" />
  <path
     style="fill:#333333;fill-opacity:1;stroke:#00ffff;stroke-width:0.0451516;stroke-opacity:1"
     d="m 65.5878,35.974177 c 0.924252,-0.954324 1.449887,-1.589534 2.792556,-3.3747 0.934275,-1.242178 1.132655,-1.48428 1.283437,-1.566298 0.07688,-0.04182 0.08202,-0.0338 0.05304,0.08272 -0.01765,0.07097 -0.383,0.972235 -0.811899,2.002821 -0.624889,1.501524 -1.152786,2.839181 -1.314134,3.329933 -0.01425,0.04334 -0.308417,0.05644 -1.267874,0.05644 h -1.249317 z"
     id="path58030" />
  <path
     style="fill:#333333;fill-opacity:1;stroke:#00ffff;stroke-width:0.0451516;stroke-opacity:1"
     d="m 56.899058,37.803202 c -0.06795,-0.04982 -0.07112,-0.08812 -0.027,-0.326438 0.02749,-0.148499 0.07802,-0.324211 0.112283,-0.390471 0.09306,-0.179955 2.716545,-3.365919 3.127162,-3.797627 l 0.16045,-0.168692 0.280142,1.049149 c 0.154079,0.577032 0.363572,1.337101 0.465541,1.689043 0.101969,0.351942 0.185398,0.646556 0.185398,0.654699 0,0.0081 -0.202733,0.0148 -0.450518,0.0148 h -0.450519 l -0.140624,-0.316061 c -0.185077,-0.415973 -0.33407,-0.609548 -0.469162,-0.609548 -0.136861,0 -0.318848,0.147891 -1.604361,1.303769 -0.583432,0.524597 -1.072266,0.953813 -1.086298,0.953813 -0.01403,0 -0.06015,-0.0254 -0.102495,-0.05644 z"
     id="path58032" />
</svg>
