<?xml version="1.0" encoding="UTF-8" standalone="no"?>
<svg
   width="112"
   height="112"
   viewBox="0 0 112 112"
   fill="none"
   version="1.1"
   id="svg75"
   sodipodi:docname="mine.svg"
   inkscape:version="1.2.2 (732a01da63, 2022-12-09)"
   xmlns:inkscape="http://www.inkscape.org/namespaces/inkscape"
   xmlns:sodipodi="http://sodipodi.sourceforge.net/DTD/sodipodi-0.dtd"
   xmlns="http://www.w3.org/2000/svg"
   xmlns:svg="http://www.w3.org/2000/svg">
  <sodipodi:namedview
     id="namedview77"
     pagecolor="#ffffff"
     bordercolor="#000000"
     borderopacity="0.25"
     inkscape:showpageshadow="2"
     inkscape:pageopacity="0.0"
     inkscape:pagecheckerboard="0"
     inkscape:deskcolor="#d1d1d1"
     showgrid="false"
     inkscape:zoom="31.321429"
     inkscape:cx="50.508552"
     inkscape:cy="48.433295"
     inkscape:window-width="1920"
     inkscape:window-height="1057"
     inkscape:window-x="1358"
     inkscape:window-y="-8"
     inkscape:window-maximized="1"
     inkscape:current-layer="svg75" />
  <path
     opacity="0.498"
     d="M103.951 48.4396L62.5823 7.07107C58.6771 3.16583 52.3454 3.16583 48.4402 7.07108L7.07159 48.4396C3.16635 52.3449 3.16636 58.6765 7.0716 62.5818L48.4402 103.95C52.3454 107.856 58.6771 107.856 62.5823 103.95L103.951 62.5818C107.856 58.6765 107.856 52.3449 103.951 48.4396Z"
     fill="black"
     id="path2" />
  <g
     filter="url(#filter0_d_124_415)"
     id="g6">
    <path
       d="M61.8752 7.77796L103.244 49.1465C106.758 52.6612 106.758 58.3597 103.244 61.8745L61.8752 103.243C58.3605 106.758 52.662 106.758 49.1473 103.243L7.77871 61.8745C4.26399 58.3597 4.26398 52.6613 7.7787 49.1465L49.1473 7.77797C52.662 4.26325 58.3605 4.26324 61.8752 7.77796Z"
       stroke="#00D1FF"
       stroke-width="2"
       id="path4" />
  </g>
  <path
     d="M55.6196 77.1493C53.1146 77.1493 50.6109 77.1467 48.1059 77.152C47.8668 77.152 47.6917 77.0762 47.5218 76.9063C45.8466 75.2154 44.1636 73.5323 42.4831 71.8467C40.0186 69.373 37.5568 66.8955 35.0845 64.4297C34.7944 64.1409 34.7016 63.8286 34.7029 63.434C34.7133 60.6703 34.7081 57.9066 34.7081 55.1428C34.7081 53.367 34.7055 51.5912 34.7094 49.8153C34.7094 49.5135 34.7395 49.2116 34.7395 48.9098C34.7395 48.6628 34.8427 48.4812 35.0126 48.3139C35.8332 47.509 36.6499 46.7001 37.4666 45.8899C39.6358 43.7391 41.8036 41.5869 43.9728 39.4373C45.1684 38.2522 46.3667 37.0683 47.5715 35.8922C47.6512 35.8151 47.7884 35.7628 47.9008 35.7589C48.3804 35.7432 48.8612 35.7485 49.3421 35.7485C53.8163 35.7485 58.2918 35.7485 62.7661 35.7485C62.8314 35.7485 62.8954 35.7537 62.9608 35.7485C63.2286 35.7289 63.4299 35.8373 63.618 36.0268C65.1613 37.5818 66.711 39.1303 68.2608 40.6787C70.7789 43.1968 73.2943 45.7201 75.8228 48.2277C76.1822 48.5831 76.3298 48.9803 76.3298 49.4651C76.3285 54.1288 76.3311 58.7925 76.3285 63.4562C76.3285 63.6705 76.3155 63.89 76.2671 64.0991C76.2397 64.2219 76.1495 64.3422 76.0593 64.4349C75.3563 65.151 74.6481 65.8619 73.9385 66.5727C72.113 68.4035 70.2862 70.2316 68.4594 72.061C66.8012 73.7231 65.1443 75.3866 63.4834 77.0461C63.4312 77.0984 63.3475 77.1467 63.2783 77.1467C60.725 77.152 58.1716 77.1506 55.6183 77.1506C55.6196 77.1506 55.6196 77.1493 55.6196 77.1493ZM39.5587 56.541C39.5574 56.541 39.5561 56.541 39.5548 56.541C39.5548 57.5015 39.5534 58.4632 39.5548 59.4237C39.5561 60.2012 39.56 60.9787 39.5626 61.7562C39.5639 61.9809 39.6279 62.1756 39.79 62.3416C40.1924 62.7558 40.5779 63.1857 40.9843 63.5947C43.3377 65.9586 45.6924 68.3198 48.0511 70.6798C48.562 71.1907 49.0834 71.6925 49.6074 72.1903C49.6884 72.2674 49.8073 72.3354 49.9158 72.3498C50.1928 72.385 50.475 72.4007 50.7547 72.402C53.0872 72.4046 55.4184 72.4046 57.7509 72.3994C58.7701 72.3968 59.7906 72.3824 60.8099 72.3641C60.9157 72.3628 61.0373 72.3197 61.1209 72.2557C61.4018 72.0388 61.6854 71.8192 61.9389 71.5709C63.9225 69.6226 65.897 67.6678 67.8766 65.7155C68.9259 64.6806 69.9818 63.6535 71.0258 62.6134C71.1265 62.5141 71.2009 62.3625 71.2297 62.224C71.2767 61.9992 71.295 61.764 71.295 61.5327C71.3003 60.1345 71.3016 58.7363 71.2937 57.3381C71.2911 56.9187 71.2506 56.4992 71.231 56.0785C71.2245 55.9334 71.2284 55.7871 71.2349 55.642C71.2532 55.2435 71.2885 54.8449 71.2924 54.4464C71.2963 54.0099 71.265 53.5735 71.2624 53.1357C71.2597 52.6823 71.2741 52.2302 71.278 51.7767C71.2807 51.5389 71.2859 51.3011 71.2728 51.0659C71.2676 50.9666 71.2401 50.849 71.1774 50.7771C70.9657 50.5327 70.7384 50.3014 70.511 50.0715C68.1602 47.6971 65.8094 45.3241 63.4573 42.9511C62.7425 42.2311 62.0278 41.5111 61.3051 40.799C61.2228 40.7179 61.0961 40.65 60.9824 40.6369C60.5642 40.5912 60.1435 40.5468 59.724 40.5441C57.5431 40.5363 55.3622 40.5376 53.1812 40.5441C52.2156 40.5468 51.2499 40.5677 50.2842 40.5899C50.1745 40.5925 50.0438 40.6369 49.9628 40.7075C49.4545 41.157 48.9462 41.6104 48.4574 42.0808C46.6032 43.8658 44.7555 45.6587 42.9052 47.4489C41.8624 48.459 40.821 49.4691 39.7821 50.4831C39.7076 50.5549 39.6253 50.6529 39.6122 50.747C39.5744 51.0241 39.5561 51.305 39.5561 51.5833C39.5561 53.2363 39.5587 54.888 39.5587 56.541Z"
     fill="#00D1FF"
     id="path8" />
  <path
     d="M27.8622 59.2106C28.0229 59.1989 28.185 59.1806 28.3457 59.178C28.7234 59.1714 29.0226 59.3622 29.2761 59.6105C30.213 60.5278 31.1408 61.4543 32.0699 62.3807C32.7925 63.1008 33.5073 63.8286 34.2312 64.546C35.9704 66.2709 37.7188 67.9879 39.4555 69.7167C41.9657 72.2138 44.4746 74.7123 46.9717 77.2212C48.7489 79.0075 50.5077 80.8121 52.2744 82.6101C52.3802 82.7173 52.4743 82.8362 52.571 82.9525C52.8441 83.2805 52.8977 83.6607 52.8206 84.0658C52.784 84.2566 52.7383 84.4447 52.6899 84.6329C52.6351 84.8446 52.4861 84.9504 52.2692 84.9217C51.4786 84.8132 50.6802 84.744 49.9014 84.5767C48.8743 84.3572 47.8459 84.1324 46.8515 83.7822C46.4242 83.632 45.9878 83.5078 45.5644 83.3484C45.0299 83.1472 44.4994 82.9355 43.978 82.7029C43.3495 82.4219 42.7314 82.1149 42.1107 81.8169C41.8781 81.7059 41.6508 81.5791 41.4142 81.4759C41.0993 81.3387 40.8563 81.1178 40.6171 80.8787C39.2581 79.5132 37.8939 78.1529 36.531 76.7913C35.3929 75.6544 34.2573 74.5176 33.1166 73.3833C32.424 72.6947 31.7184 72.0191 31.0349 71.3213C30.835 71.1162 30.6678 70.8679 30.5332 70.6131C30.1607 69.9075 29.804 69.1927 29.459 68.4727C29.2761 68.0885 29.1193 67.6913 28.9703 67.2914C28.6855 66.5231 28.3888 65.7586 28.1458 64.9759C27.921 64.2507 27.7394 63.5111 27.5774 62.7688C27.367 61.7993 27.1945 60.8231 27.0102 59.8483C26.9933 59.7555 27.0011 59.6549 27.0089 59.5595C27.0233 59.3949 27.1174 59.2877 27.2794 59.2603C27.4702 59.2276 27.6636 59.2093 27.8557 59.1845C27.8596 59.195 27.8609 59.2028 27.8622 59.2106ZM40.7962 77.8223C40.9713 77.8001 41.1464 77.7556 41.3215 77.7583C41.6311 77.7622 41.9199 77.6955 42.2022 77.5792C42.5694 77.4277 42.9562 77.3114 43.1953 76.9507C43.4815 76.5208 43.5756 76.0321 43.1783 75.6492C42.3825 74.8822 41.6024 74.0981 40.8131 73.3245C40.7256 73.2383 40.6211 73.1704 40.523 73.0959C40.3937 72.9979 40.2761 73.0266 40.1637 73.1311C39.5456 73.7022 38.9223 74.2654 38.3121 74.8443C37.9985 75.1422 38.0037 75.2311 38.3055 75.5512C38.9458 76.2294 39.5966 76.8984 40.2317 77.5805C40.3911 77.753 40.5557 77.8563 40.7962 77.8223ZM35.517 68.6151C35.5131 68.5994 35.5079 68.5851 35.5039 68.5694C35.3628 68.653 35.2165 68.7288 35.0819 68.8203C34.7238 69.0646 34.4599 69.3613 34.4233 69.8317C34.3867 70.3139 34.3004 70.7934 34.2351 71.273C34.209 71.4625 34.2625 71.6206 34.4011 71.7565C34.6729 72.0191 34.9329 72.2935 35.2073 72.5523C35.6699 72.9887 36.1403 73.4173 36.6068 73.8485C36.6917 73.9269 36.7715 73.957 36.8681 73.8538C37.1922 73.5075 37.528 73.1717 37.8495 72.8228C38.1631 72.4817 38.465 72.1289 38.7681 71.7787C38.874 71.6572 38.8609 71.5369 38.7459 71.4206C38.5786 71.2521 38.414 71.0809 38.252 70.9084C37.66 70.2812 37.0589 69.6605 36.4801 69.0215C36.2161 68.7301 35.8959 68.6203 35.517 68.6151Z"
     fill="#00D1FF"
     id="path10" />
  <path
     d="M58.7766 84.9152C58.7113 84.9152 58.6472 84.9165 58.5819 84.9152C58.382 84.9086 58.2983 84.842 58.2644 84.6421C58.2265 84.4238 58.2082 84.203 58.1651 83.9861C58.0736 83.5196 58.2265 83.1406 58.5558 82.814C59.119 82.2547 59.6756 81.6902 60.2362 81.1283C63.7644 77.5962 67.2912 74.0655 70.8194 70.5347C72.8487 68.5041 74.8806 66.476 76.9087 64.4441C78.4375 62.9126 79.9612 61.3759 81.4861 59.8405C81.7462 59.5778 82.0219 59.3361 82.3747 59.208C82.4479 59.1819 82.5315 59.1636 82.6086 59.1688C82.883 59.1845 83.1561 59.212 83.4305 59.2329C83.9545 59.2747 84.0525 59.4824 83.978 59.915C83.8421 60.7055 83.6997 61.4948 83.5351 62.2788C83.3861 62.9897 83.2149 63.6966 83.0333 64.4009C82.9444 64.7446 82.8124 65.0765 82.6961 65.4137C82.521 65.9167 82.3538 66.4238 82.1604 66.9203C81.7801 67.8938 81.3672 68.8543 80.8667 69.7742C80.7256 70.0342 80.5884 70.2982 80.463 70.5661C80.3062 70.9019 80.05 71.1567 79.7952 71.4115C78.0952 73.1142 76.3964 74.8207 74.6938 76.5208C73.4302 77.7831 72.1587 79.0375 70.8912 80.2959C70.8141 80.3717 70.7344 80.4449 70.6652 80.5272C70.1438 81.157 69.4159 81.4824 68.7286 81.877C67.8818 82.3631 66.9776 82.7147 66.0773 83.0727C65.3625 83.3576 64.6242 83.5862 63.8963 83.8397C63.0431 84.1377 62.1636 84.3298 61.2777 84.4944C60.478 84.6434 59.6743 84.7714 58.8733 84.9073C58.8419 84.9126 58.8093 84.9126 58.7766 84.9152ZM67.5643 76.134C67.5891 76.3209 67.6022 76.5103 67.6414 76.6946C67.6623 76.7887 67.712 76.8893 67.7773 76.9599C68.1327 77.344 68.5679 77.5766 69.0919 77.6498C69.4695 77.7021 69.8432 77.7818 70.217 77.8536C70.4182 77.8928 70.5698 77.8536 70.7174 77.689C71.3878 76.9429 72.0725 76.2085 72.752 75.4702C72.948 75.2572 72.9585 75.1409 72.7428 74.9514C72.0607 74.3556 71.3682 73.7715 70.6795 73.1821C70.5933 73.1076 70.528 73.1194 70.4443 73.1978C70.0366 73.5833 69.6211 73.9609 69.2134 74.3451C68.7181 74.8103 68.2255 75.2794 67.7355 75.7498C67.631 75.8531 67.5369 75.968 67.5643 76.134ZM76.7166 71.239C76.6578 70.6549 76.599 70.0708 76.5376 69.4867C76.5336 69.4462 76.518 69.3952 76.4892 69.3704C76.2801 69.1862 76.0802 68.9875 75.8515 68.8333C75.6856 68.721 75.4726 68.6805 75.2923 68.5864C75.1812 68.5289 75.1054 68.5419 75.0205 68.623C74.1018 69.5037 73.1793 70.3805 72.2633 71.2652C72.0215 71.4978 72.0176 71.7643 72.2567 72.0061C72.8722 72.6268 73.4994 73.2357 74.1214 73.8499C74.2286 73.9557 74.3227 73.9544 74.4377 73.8394C75.1159 73.1599 75.7967 72.4817 76.4853 71.8127C76.6499 71.648 76.7532 71.4782 76.7166 71.239Z"
     fill="#00D1FF"
     id="path12" />
  <path
     d="M28.2361 53.7969C27.8898 53.7708 27.6141 53.7538 27.341 53.7263C27.141 53.7067 27.0509 53.627 27.0444 53.4297C27.0378 53.2664 27.0744 53.1017 27.0927 52.9384C27.1162 52.7189 27.1306 52.498 27.1646 52.2811C27.2325 51.8447 27.307 51.4108 27.3854 50.9757C27.4481 50.632 27.5161 50.2897 27.5932 49.9499C27.6794 49.5723 27.763 49.192 27.8741 48.8209C28.0414 48.2642 28.2269 47.7128 28.4138 47.1627C28.5811 46.6687 28.7431 46.1722 28.9417 45.6913C29.2135 45.034 29.5141 44.3885 29.8133 43.7443C30.008 43.3235 30.2105 42.9041 30.4353 42.5003C30.5725 42.2533 30.7345 42.009 30.9305 41.809C32.0282 40.6931 33.1389 39.5915 34.2457 38.4834C36.0202 36.7089 37.7948 34.9344 39.5693 33.1585C39.9704 32.7574 40.352 32.3353 40.7793 31.9655C41.0851 31.7002 41.4379 31.4781 41.7946 31.2834C42.3382 30.9868 42.8962 30.7097 43.4633 30.4602C44.2487 30.1152 45.0405 29.7846 45.8429 29.4853C46.4021 29.2763 46.9823 29.1234 47.5573 28.9587C48.0747 28.8111 48.5948 28.6647 49.1201 28.5484C49.7826 28.4021 50.4517 28.2805 51.1194 28.159C51.3259 28.1211 51.5375 28.1159 51.7466 28.0924C51.8904 28.0767 52.0367 28.0649 52.1778 28.0336C52.4719 27.9669 52.5999 28.0362 52.6848 28.3237C52.7293 28.4739 52.7933 28.619 52.8234 28.7706C52.9292 29.3155 52.7776 29.7846 52.3843 30.174C51.8551 30.698 51.3232 31.2194 50.7953 31.7434C48.6418 33.8785 46.4897 36.015 44.3362 38.1502C42.2585 40.2096 40.1795 42.2664 38.1018 44.3258C35.5563 46.8478 33.0121 49.371 30.4653 51.8917C29.9126 52.4379 29.352 52.9763 28.7901 53.512C28.6163 53.6767 28.4373 53.8453 28.2361 53.7969ZM40.825 35.1474C40.7205 35.2245 40.5924 35.3029 40.4853 35.4022C39.9116 35.9327 39.3406 36.4672 38.7735 37.0055C38.5553 37.2133 38.3501 37.4354 38.1397 37.651C38.0522 37.7399 38.0469 37.8209 38.145 37.9124C38.3423 38.0953 38.5291 38.29 38.7291 38.4717C39.1746 38.8781 39.6294 39.2766 40.0737 39.6843C40.3664 39.9522 40.3703 39.96 40.6578 39.683C41.2719 39.0924 41.8822 38.4978 42.4924 37.9032C42.7511 37.651 43.006 37.3949 43.2595 37.1388C43.3418 37.0552 43.3914 36.9572 43.3522 36.8317C43.2673 36.5586 43.1915 36.2842 43.1027 36.0124C43.0164 35.7485 42.8178 35.5903 42.5604 35.5315C42.1161 35.4296 41.6653 35.3538 41.2184 35.2624C41.0995 35.2349 40.9832 35.1931 40.825 35.1474ZM36.7781 39.2047C36.769 39.2178 36.7611 39.2322 36.752 39.2453C36.5573 39.2191 36.4384 39.3524 36.3221 39.4661C35.6792 40.0972 35.0441 40.7349 34.4051 41.3713C34.2718 41.5046 34.2339 41.6588 34.2653 41.8443C34.3581 42.3905 34.4522 42.938 34.524 43.4882C34.575 43.8802 34.7984 44.1036 35.1499 44.2304C35.2806 44.2774 35.4126 44.3245 35.5407 44.3781C35.7693 44.4761 35.87 44.4643 36.0477 44.284C36.5664 43.7574 37.0813 43.2281 37.5974 42.6989C37.9516 42.3356 38.3057 41.9724 38.6533 41.6039C38.831 41.4157 38.8271 41.3739 38.6637 41.1818C38.4991 40.9897 38.3318 40.7989 38.1646 40.6082C37.8104 40.2083 37.4602 39.8045 37.0983 39.4138C37.0133 39.3237 36.8853 39.274 36.7781 39.2047Z"
     fill="#00D1FF"
     id="path14" />
  <path
     d="M82.9026 53.81C82.5629 53.8596 82.3656 53.6506 82.1513 53.4376C80.5571 51.8421 78.955 50.2544 77.3543 48.6641C75.7313 47.0503 74.1084 45.4378 72.4828 43.8253C70.7279 42.0848 68.9691 40.3481 67.2154 38.6063C65.2972 36.7011 63.3815 34.7919 61.4646 32.8841C60.512 31.9355 59.5672 30.9802 58.6041 30.042C58.2291 29.6761 58.0854 29.2619 58.1795 28.7549C58.2056 28.6177 58.2121 28.4753 58.2448 28.3394C58.3127 28.048 58.4865 27.9486 58.7714 28.0244C58.808 28.0349 58.8433 28.0506 58.8799 28.0558C59.4117 28.1329 59.9461 28.2035 60.4767 28.2871C60.8007 28.338 61.1222 28.4047 61.4436 28.4713C61.8435 28.555 62.2447 28.6373 62.6406 28.7366C62.9111 28.8045 63.1737 28.9052 63.4403 28.9849C63.8637 29.1116 64.291 29.2214 64.7105 29.3599C65.0985 29.488 65.4814 29.6356 65.8604 29.7898C66.485 30.042 67.1148 30.2851 67.7238 30.5725C68.2935 30.8404 68.8266 31.188 69.3977 31.452C70.085 31.7695 70.5371 32.3471 71.0494 32.8567C73.144 34.937 75.2256 37.0277 77.3125 39.1146C78.201 40.0032 79.087 40.8956 79.9821 41.779C80.3101 42.1017 80.493 42.5108 80.7008 42.9054C80.8615 43.2112 81.0327 43.5117 81.1843 43.8214C81.3816 44.2278 81.5737 44.6394 81.7514 45.0549C81.9801 45.5907 82.214 46.1251 82.4074 46.674C82.6138 47.2581 82.7707 47.8592 82.9601 48.4498C83.2633 49.3906 83.4462 50.3589 83.6644 51.3207C83.7455 51.6787 83.7729 52.0302 83.7964 52.3909C83.8069 52.5503 83.8644 52.7071 83.897 52.8652C83.9193 52.9711 83.9428 53.0769 83.9519 53.1841C83.9768 53.4898 83.8108 53.7094 83.5103 53.7551C83.3116 53.7851 83.1065 53.7917 82.9026 53.81ZM76.7728 41.6091C76.7454 41.5542 76.7166 41.4471 76.65 41.3739C76.4919 41.1975 76.3168 41.0368 76.1469 40.8708C75.6294 40.3664 75.1133 39.8607 74.5932 39.3589C74.3632 39.1368 74.0849 39.1224 73.881 39.3433C73.3035 39.9692 72.7389 40.6056 72.1692 41.2393C72.0947 41.3216 72.0843 41.4105 72.164 41.4993C72.211 41.5516 72.2515 41.6091 72.2999 41.6601C72.7703 42.1658 73.2394 42.6715 73.7125 43.1733C74.0744 43.5574 74.4429 43.9364 74.8062 44.3206C74.9055 44.4251 75.01 44.4891 75.1629 44.4473C75.4321 44.3741 75.7039 44.3062 75.9744 44.2409C76.288 44.1651 76.5062 43.9743 76.5494 43.6581C76.6408 42.9942 76.697 42.3278 76.7728 41.6091ZM67.5473 36.9219C67.5918 37.0003 67.644 37.1454 67.742 37.2486C67.9537 37.4707 68.1876 37.672 68.4137 37.8797C69.0867 38.503 69.7596 39.1263 70.4352 39.747C70.6012 39.8986 70.6299 39.8973 70.7985 39.7431C71.1487 39.423 71.5002 39.1028 71.8478 38.7801C72.0973 38.5488 72.3495 38.3201 72.5861 38.077C72.8461 37.8092 72.85 37.6955 72.59 37.4381C71.917 36.769 71.2362 36.1052 70.5489 35.4505C70.4613 35.3669 70.3071 35.3016 70.1895 35.3107C69.6198 35.3525 69.0514 35.4192 68.483 35.4819C68.2922 35.5028 68.1249 35.5668 67.9877 35.7223C67.7041 36.0464 67.6153 36.441 67.5473 36.9219Z"
     fill="#00D1FF"
     id="path16" />
  <path
     d="M48.7109 78.0562C48.7684 78.0496 48.856 78.03 48.9448 78.03C52.1894 78.0261 55.4327 78.0235 58.6773 78.0222C59.8651 78.0209 61.0529 78.0209 62.2394 78.0248C62.2969 78.0248 62.3557 78.0601 62.4132 78.0784C62.3897 78.1228 62.3753 78.1751 62.3414 78.2091C61.1431 79.4152 59.9448 80.6213 58.7426 81.8222C58.4107 82.1541 58.0854 82.4964 57.7208 82.7904C57.1929 83.2151 56.5918 83.5 55.9044 83.5797C55.2459 83.6555 54.5951 83.5954 54.0149 83.2883C53.6477 83.0936 53.3328 82.7813 53.0323 82.482C51.7582 81.2158 50.4959 79.9352 49.2336 78.656C49.0494 78.4717 48.8887 78.2626 48.7109 78.0562ZM55.5007 78.7487V78.7474C55.0041 78.7474 54.5089 78.7514 54.0123 78.7448C53.8581 78.7422 53.747 78.7971 53.6438 78.9069C53.338 79.2335 53.3276 79.3289 53.6399 79.6465C54.1391 80.1535 54.6474 80.6513 55.1583 81.1466C55.3896 81.37 55.6405 81.3583 55.8652 81.1335C55.9371 81.0616 56.0116 80.9898 56.0822 80.9166C56.5291 80.4566 56.976 79.9967 57.4202 79.5328C57.5169 79.4308 57.6149 79.3185 57.5718 79.1617C57.5222 78.9826 57.1955 78.75 57.0034 78.7487C56.5042 78.7474 56.0024 78.7487 55.5007 78.7487Z"
     fill="#00D1FF"
     id="path18" />
  <path
     d="M48.656 34.8089C48.6795 34.775 48.6978 34.7371 48.7266 34.7083C50.0111 33.4369 51.2956 32.1667 52.5814 30.8966C53.0035 30.4798 53.4282 30.059 53.9469 29.7637C54.2043 29.6173 54.5036 29.5376 54.7911 29.4514C54.9858 29.3926 55.1935 29.3468 55.3948 29.3468C55.6287 29.3481 55.8652 29.3939 56.0965 29.4422C56.4989 29.5259 56.8753 29.6761 57.2346 29.8852C57.9468 30.2994 58.4812 30.9097 59.0523 31.4807C60.0519 32.4804 61.0424 33.4878 62.0381 34.4914C62.11 34.5646 62.1936 34.6247 62.2642 34.6992C62.2943 34.7305 62.3047 34.7802 62.323 34.822C62.2851 34.8351 62.2472 34.8586 62.208 34.8599C62.0355 34.8677 61.863 34.873 61.6906 34.873C57.7024 34.8717 53.7143 34.8703 49.7262 34.8664C49.5001 34.8664 49.2741 34.8403 49.048 34.8351C48.9239 34.8325 48.7984 34.8481 48.6743 34.856C48.6691 34.8403 48.6625 34.8246 48.656 34.8089ZM55.5098 34.1765C55.5098 34.1739 55.5098 34.1699 55.5098 34.1673C55.532 34.1673 55.5529 34.1673 55.5751 34.1673C56.0717 34.1686 56.5682 34.1712 57.0648 34.1686C57.1941 34.1686 57.4633 33.9896 57.4581 33.8785C57.4529 33.7688 57.3692 33.6629 57.3196 33.5558C57.3157 33.5466 57.3052 33.5401 57.2974 33.5323C56.8073 33.0305 56.3173 32.53 55.8273 32.0269C55.4797 31.6702 55.4366 31.6636 55.0838 32.0282C54.8067 32.3144 54.5506 32.6215 54.2788 32.9142C54.0436 33.1664 53.7953 33.4068 53.5627 33.6616C53.5209 33.7074 53.4922 33.8276 53.5209 33.8655C53.6594 34.0497 53.828 34.1856 54.088 34.1791C54.5598 34.1673 55.0354 34.1765 55.5098 34.1765Z"
     fill="#00D1FF"
     id="path20" />
  <path
     d="M33.8365 49.4821C33.8365 54.0569 33.8365 58.5795 33.8365 63.1465C33.7568 63.0851 33.7071 63.055 33.6679 63.0158C32.4043 61.7392 31.1407 60.4625 29.8771 59.1858C29.6798 58.9859 29.4799 58.7899 29.28 58.5926C29.2538 58.5664 29.2277 58.5338 29.1963 58.5181C28.7455 58.2946 28.5966 57.8752 28.5051 57.4296C28.4345 57.0872 28.3783 56.7423 28.3391 56.396C28.3248 56.2745 28.377 56.1438 28.4032 56.017C28.4188 55.9373 28.4593 55.8589 28.4554 55.7818C28.4306 55.365 28.6906 55.071 28.8697 54.7364C29.3375 53.8622 30.0653 53.2141 30.75 52.5294C31.7105 51.5676 32.6801 50.615 33.6457 49.6585C33.6954 49.6076 33.7476 49.5631 33.8365 49.4821ZM33.1309 56.5162C33.1309 56.5162 33.1296 56.5162 33.1309 56.5162C33.1309 55.9883 33.1309 55.4604 33.1296 54.9311C33.1296 54.8841 33.127 54.8318 33.11 54.7887C32.9688 54.449 32.7807 54.4111 32.5272 54.6685C31.9601 55.2448 31.3929 55.821 30.8271 56.3986C30.6677 56.5606 30.6612 56.5802 30.8206 56.737C31.3289 57.2349 31.8424 57.7262 32.3547 58.2189C32.4592 58.3195 32.5651 58.4201 32.6827 58.505C32.7258 58.5364 32.8238 58.5547 32.8552 58.5299C32.9976 58.4096 33.1387 58.2894 33.1348 58.066C33.1243 57.5511 33.1309 57.0337 33.1309 56.5162Z"
     fill="#00D1FF"
     id="path22" />
  <path
     d="M77.242 49.6833C77.3087 49.7382 77.3505 49.7696 77.3858 49.8049C78.6389 51.0606 79.892 52.319 81.1465 53.5734C81.5999 54.0256 81.9985 54.5195 82.3016 55.084C82.384 55.2369 82.4166 55.4159 82.465 55.5858C82.495 55.6943 82.5042 55.8092 82.5342 55.9164C82.6492 56.3163 82.6558 56.7135 82.5342 57.112C82.5159 57.1735 82.4963 57.2375 82.4924 57.3015C82.4637 57.7706 82.2154 58.1352 81.9266 58.4737C80.748 59.8536 79.3916 61.0623 78.1332 62.3651C77.8719 62.6369 77.6118 62.91 77.3505 63.1831C77.3335 63.2014 77.3087 63.2131 77.2577 63.251C77.2394 63.1556 77.212 63.0825 77.2107 63.008C77.2054 61.5837 77.2015 60.1593 77.2015 58.735C77.2002 55.9347 77.2015 53.1344 77.2015 50.3328C77.2015 50.176 77.2041 50.0192 77.2093 49.8637C77.2107 49.8153 77.2263 49.7657 77.242 49.6833ZM78.2142 54.4882C78.1829 54.5025 78.1554 54.5091 78.1371 54.526C77.9855 54.6619 77.8653 54.8096 77.8653 55.0344C77.8614 55.9896 77.8523 56.9435 77.8379 57.8987C77.8353 58.0921 77.881 58.2567 77.9986 58.4096C78.1593 58.6174 78.1894 58.6305 78.3736 58.4501C78.9473 57.8869 79.517 57.3198 80.0841 56.7488C80.2605 56.5711 80.2605 56.5319 80.0828 56.3489C79.5105 55.7622 78.9329 55.1794 78.3566 54.5966C78.3148 54.5535 78.2626 54.5234 78.2142 54.4882Z"
     fill="#00D1FF"
     id="path24" />
  <path
     d="M40.2943 56.3529C40.2943 54.7717 40.2943 53.1893 40.2943 51.6082C40.2943 51.3873 40.2891 51.1652 40.3087 50.9456C40.3165 50.8581 40.3675 50.7588 40.4302 50.6961C40.8811 50.2387 41.3371 49.7866 41.7971 49.3384C43.991 47.1967 46.1863 45.0576 48.3803 42.9158C48.856 42.452 49.3303 41.9894 49.8047 41.5242C49.9562 41.3752 50.1457 41.353 50.343 41.353C51.4276 41.3543 52.5135 41.3556 53.5981 41.3556C55.9894 41.3556 58.3807 41.3569 60.772 41.353C60.9993 41.353 61.1771 41.4314 61.3339 41.5882C63.2717 43.5431 65.2096 45.4979 67.1475 47.4515C68.1471 48.459 69.1454 49.469 70.149 50.4713C70.4561 50.7771 70.6103 51.1221 70.6037 51.5676C70.5828 52.8848 70.5881 54.2007 70.5854 55.5179C70.5828 56.8886 70.5828 58.2594 70.5802 59.6301C70.5776 60.4181 70.5763 61.206 70.5606 61.9927C70.558 62.1064 70.511 62.2449 70.4352 62.3259C70.0824 62.7048 69.7152 63.0707 69.348 63.4353C66.7385 66.0226 64.1302 68.6125 61.5129 71.192C60.8843 71.8127 61.0594 71.6964 60.2833 71.6977C56.9955 71.7055 53.7078 71.6964 50.4214 71.7068C50.0464 71.7081 49.7733 71.5945 49.5106 71.3266C46.6842 68.4361 43.8486 65.5561 41.0156 62.6722C40.834 62.4879 40.6576 62.2984 40.4773 62.1129C40.3505 61.9822 40.293 61.8346 40.2943 61.6477C40.2996 59.8823 40.2969 58.1182 40.2969 56.3529C40.2956 56.3529 40.2943 56.3529 40.2943 56.3529ZM69.5819 56.3097C69.5793 56.3097 69.5767 56.3097 69.574 56.3097C69.574 54.7116 69.5714 53.1148 69.5767 51.5167C69.578 51.3285 69.5205 51.1887 69.3885 51.058C68.6175 50.2949 67.8531 49.5252 67.0847 48.7595C64.9757 46.6544 62.8653 44.5519 60.7615 42.4428C60.5577 42.239 60.3525 42.1004 60.052 42.1553C59.9736 42.1697 59.8899 42.1527 59.8102 42.1527C57.0844 42.154 54.3586 42.1553 51.6328 42.1566C51.3035 42.1566 50.9742 42.1736 50.6462 42.1606C50.4802 42.154 50.3522 42.1932 50.2385 42.3069C49.9915 42.5565 49.7406 42.8008 49.495 43.0517C47.6473 44.9282 45.8035 46.8073 43.9518 48.6798C43.2057 49.4351 42.4478 50.1812 41.6886 50.9247C41.5305 51.0789 41.4508 51.2423 41.4612 51.4657C41.4756 51.7663 41.4652 52.0681 41.4678 52.37C41.4769 53.2337 41.4952 54.0961 41.4952 54.9599C41.4965 55.8563 41.4769 56.7514 41.4743 57.6478C41.4704 58.7324 41.4665 59.8183 41.4808 60.9029C41.4861 61.3079 41.5854 61.6934 41.916 61.977C42.0427 62.0854 42.1577 62.2083 42.2753 62.3272C43.8329 63.8992 45.3892 65.4712 46.9469 67.0431C47.9988 68.1055 49.0494 69.1692 50.1091 70.2224C50.2372 70.3492 50.4136 70.4498 50.5848 70.502C50.7599 70.5569 50.9585 70.5491 51.1467 70.5491C53.3916 70.553 55.6379 70.5556 57.8828 70.5517C58.6329 70.5504 59.3829 70.5151 60.1317 70.519C60.4479 70.5203 60.6648 70.3844 60.8765 70.1701C62.4616 68.5642 64.0531 66.966 65.6408 65.364C66.8979 64.0952 68.1536 62.825 69.412 61.5575C69.5348 61.4334 69.5819 61.2949 69.5806 61.1224C69.5793 59.5164 69.5819 57.9131 69.5819 56.3097Z"
     fill="#00D1FF"
     id="path26" />
  <path
     d="M42.5014 76.0647C42.4701 76.2411 42.4596 76.3718 42.423 76.4946C42.3747 76.6567 42.278 76.786 42.0951 76.8135C41.6704 76.8762 41.2444 76.9285 40.8197 76.9964C40.6799 77.0186 40.5766 76.9781 40.4878 76.8814C40.0265 76.3757 39.5665 75.87 39.104 75.3643C39.0203 75.2729 39.0138 75.1879 39.1053 75.0991C39.4398 74.7776 39.7665 74.4496 40.1075 74.136C40.3388 73.923 40.3767 73.9204 40.6015 74.1321C41.0444 74.5502 41.4744 74.9815 41.9095 75.4075C42.0519 75.5473 42.2035 75.678 42.3381 75.8243C42.4139 75.904 42.4622 76.0046 42.5014 76.0647Z"
     fill="#00D1FF"
     id="path28" />
  <path
     d="M35.0792 71.3213C35.1315 70.8692 35.1772 70.4733 35.223 70.0773C35.2347 69.9754 35.2413 69.8735 35.2543 69.7729C35.2909 69.4749 35.5039 69.3338 35.7757 69.4462C35.9064 69.4997 36.0397 69.5782 36.1377 69.6788C36.7322 70.2955 37.3163 70.9215 37.907 71.5422C37.9762 71.6153 37.9632 71.6663 37.9057 71.7342C37.6195 72.0701 37.3451 72.4177 37.0458 72.7417C36.9504 72.845 36.7963 72.8998 36.6604 72.956C36.6185 72.973 36.531 72.9351 36.4918 72.8959C36.0593 72.4529 35.6294 72.006 35.206 71.5526C35.1367 71.4807 35.1054 71.3723 35.0792 71.3213Z"
     fill="#00D1FF"
     id="path30" />
  <path
     d="M71.9497 75.2219C71.6805 75.512 71.4087 75.8099 71.133 76.1026C70.9004 76.3496 70.6547 76.5861 70.4261 76.837C70.3019 76.9729 70.1673 77.0056 69.9922 76.9716C69.8511 76.9441 69.7034 76.9441 69.5597 76.9337C69.3245 76.9167 69.088 76.9036 68.8528 76.8866C68.8371 76.8853 68.8136 76.884 68.807 76.8749C68.679 76.6684 68.5444 76.4633 68.4333 76.2477C68.4124 76.2072 68.4843 76.1144 68.5235 76.0503C68.9939 75.2872 69.6917 74.7475 70.3659 74.1857C70.4783 74.0916 70.5999 74.0641 70.7188 74.1608C71.1265 74.4967 71.5289 74.8364 71.934 75.1761C71.9392 75.1827 71.9405 75.1957 71.9497 75.2219Z"
     fill="#00D1FF"
     id="path32" />
  <path
     d="M75.9039 71.0444C75.9783 71.3083 75.815 71.5448 75.5759 71.7709C75.2008 72.1263 74.8415 72.5 74.4808 72.8712C74.3698 72.9861 74.2874 72.9861 74.1711 72.8764C73.8693 72.5915 73.5544 72.321 73.2512 72.0375C72.9873 71.7905 72.9794 71.4991 73.229 71.2364C73.689 70.7516 74.1529 70.2708 74.6154 69.7886C74.7017 69.6997 74.7866 69.6096 74.8768 69.5233C74.9147 69.4867 74.9591 69.4515 75.0074 69.4306C75.2596 69.3195 75.8137 69.6527 75.8346 69.931C75.8607 70.2734 75.8777 70.6184 75.9039 71.0444Z"
     fill="#00D1FF"
     id="path34" />
  <path
     d="M40.3218 38.9904C40.2487 38.9525 40.1624 38.9303 40.1036 38.8754C39.7926 38.5853 39.4842 38.2913 39.1824 37.9908C38.9746 37.7843 38.9825 37.7425 39.1941 37.5347C39.6058 37.131 40.02 36.7285 40.4277 36.3208C40.7557 35.9928 41.1333 35.8909 41.5776 36.0242C41.8089 36.0934 42.0415 36.1588 42.2741 36.2202C42.41 36.2555 42.4649 36.3469 42.5198 36.4685C42.6387 36.7311 42.5877 36.9219 42.3839 37.127C41.8599 37.655 41.3542 38.2012 40.8485 38.7461C40.7073 38.9016 40.544 38.98 40.3218 38.9904Z"
     fill="#00D1FF"
     id="path36" />
  <path
     d="M35.1497 42.9485C35.1275 42.5787 35.1144 42.2494 35.0844 41.9227C35.0687 41.7424 35.121 41.5947 35.236 41.4627C35.6411 41.0002 36.0474 40.5376 36.4525 40.075C36.5139 40.0044 36.5858 39.943 36.6707 40.0227C37.0967 40.4187 37.5463 40.7911 37.8729 41.2811C37.9357 41.3739 37.9278 41.4471 37.8546 41.5255C37.4339 41.9737 37.017 42.4258 36.5923 42.8701C36.3467 43.1275 36.0866 43.3719 35.8358 43.6241C35.7547 43.7051 35.675 43.7273 35.5862 43.6397C35.5744 43.628 35.5613 43.6188 35.5457 43.6123C35.2138 43.4908 35.0373 43.2804 35.1497 42.9485Z"
     fill="#00D1FF"
     id="path38" />
  <path
     d="M75.1604 43.628C75.0572 43.5614 74.9357 43.5117 74.8533 43.4241C74.328 42.874 73.8106 42.3174 73.2931 41.7607C73.0174 41.4641 73.0174 41.4588 73.2657 41.1491C73.5218 40.8303 73.7858 40.5154 74.0445 40.1979C74.1346 40.0868 74.2327 40.0567 74.3476 40.1573C74.5162 40.3076 74.6874 40.4553 74.852 40.6108C75.1696 40.9113 75.4806 41.2171 75.7981 41.5176C75.9445 41.6562 76.0059 41.7881 75.9445 42.0103C75.8242 42.4493 75.7589 42.9028 75.67 43.351C75.6504 43.4516 75.6139 43.5326 75.4897 43.5431C75.3891 43.5509 75.2885 43.5783 75.1879 43.5966C75.1774 43.6097 75.1683 43.6189 75.1604 43.628Z"
     fill="#00D1FF"
     id="path40" />
  <path
     d="M70.2234 36.0386C70.2666 36.0634 70.3476 36.0895 70.3999 36.1431C70.8886 36.6383 71.3721 37.1388 71.8595 37.6341C71.93 37.7059 71.9209 37.7608 71.8529 37.8235C71.4439 38.1986 71.0362 38.5762 70.6272 38.9512C70.5201 39.0492 70.4443 39.0362 70.3345 38.9238C69.9255 38.5096 69.4995 38.111 69.0814 37.7059C68.8958 37.5256 68.7129 37.3414 68.5247 37.1636C68.4241 37.0683 68.3914 36.9598 68.4267 36.8265C68.4528 36.7272 68.4724 36.6266 68.4986 36.5286C68.5378 36.3783 68.6214 36.2999 68.7887 36.2764C69.2408 36.2124 69.689 36.1248 70.1398 36.0477C70.1555 36.0464 70.1712 36.0451 70.2234 36.0386Z"
     fill="#00D1FF"
     id="path42" />
  <path
     d="M54.5612 79.6203C55.191 79.6648 55.8038 79.6974 56.3161 79.6164C56.0652 79.9078 55.7699 80.2528 55.4641 80.6069C55.144 80.2567 54.8526 79.9392 54.5612 79.6203Z"
     fill="#00D1FF"
     id="path44" />
  <path
     d="M56.2586 33.4134C55.7346 33.4303 55.2106 33.4473 54.6814 33.4643C54.6866 33.4513 54.6892 33.4225 54.7049 33.4042C54.9244 33.1585 55.1427 32.9129 55.3687 32.6751C55.3975 32.645 55.4968 32.6332 55.5229 32.6568C55.7856 32.892 56.0391 33.135 56.2952 33.3768C56.2847 33.3898 56.2717 33.4016 56.2586 33.4134Z"
     fill="#00D1FF"
     id="path46" />
  <path
     d="M32.4422 57.4505C32.1704 57.1878 31.9221 56.9526 31.6817 56.7083C31.653 56.6795 31.6464 56.5802 31.6726 56.5515C31.9261 56.2614 32.1913 55.983 32.5402 55.7544C32.3507 56.3189 32.4527 56.869 32.4422 57.4505Z"
     fill="#00D1FF"
     id="path48" />
  <path
     d="M78.5185 57.4832C78.5996 56.9069 78.627 56.3594 78.5094 55.774C78.58 55.8158 78.6309 55.838 78.6714 55.872C78.8897 56.0562 79.1053 56.2431 79.3209 56.4299C79.3797 56.4822 79.4293 56.5371 79.3522 56.6194C79.0974 56.8899 78.8439 57.1617 78.5904 57.4335C78.5773 57.4479 78.5577 57.457 78.5185 57.4832Z"
     fill="#00D1FF"
     id="path50" />
  <path
     d="M55.5176 69.5233C53.926 69.5233 52.3331 69.522 50.7415 69.5259C50.5887 69.5259 50.4802 69.4802 50.3717 69.373C48.8141 67.8246 47.2513 66.2826 45.6924 64.7355C44.6117 63.664 43.5389 62.5846 42.4569 61.5144C42.2557 61.3158 42.1721 61.1067 42.1721 60.8153C42.1825 58.0085 42.1903 55.2016 42.1655 52.3961C42.1603 51.8434 42.3302 51.4435 42.717 51.0554C45.2128 48.553 47.6903 46.0311 50.1731 43.5169C50.2306 43.4594 50.292 43.4059 50.3469 43.3471C50.4763 43.2072 50.6305 43.1497 50.8226 43.1511C53.8933 43.155 56.9641 43.1602 60.0363 43.1511C60.3564 43.1497 60.5916 43.2543 60.8098 43.4738C62.3295 44.9988 63.8532 46.5198 65.3768 48.0421C66.2693 48.9346 67.1644 49.8258 68.0543 50.7222C68.2751 50.9443 68.4894 51.173 68.6867 51.4148C68.7638 51.5075 68.8213 51.6447 68.8266 51.7637C68.8462 52.2916 68.8462 52.8208 68.8475 53.3487C68.8514 55.8158 68.8514 58.2816 68.8566 60.7487C68.8566 60.9538 68.7455 61.095 68.6188 61.2269C67.9772 61.8973 67.3356 62.5676 66.6875 63.2314C64.7169 65.2503 62.7425 67.2653 60.7732 69.2868C60.6125 69.4514 60.4531 69.5338 60.2127 69.5325C58.6485 69.5181 57.0831 69.5246 55.5176 69.5233ZM60.1277 56.6874C60.1434 56.6861 60.1578 56.6848 60.1735 56.6835C60.1264 56.3816 60.0676 56.0811 60.0376 55.7779C59.997 55.3846 59.8533 55.0265 59.6599 54.6933C59.3097 54.0909 58.8524 53.5748 58.3114 53.1357C58.2447 53.0821 58.1781 53.0259 58.1036 52.9841C57.8828 52.8613 57.6528 52.7555 57.4372 52.6235C57.1445 52.4432 56.8439 52.3125 56.4898 52.2981C56.2441 52.2877 55.9985 52.2367 55.758 52.1818C55.5254 52.1282 55.3046 52.1308 55.0759 52.2027C54.9087 52.255 54.727 52.3112 54.5585 52.2981C54.1913 52.2681 53.9156 52.4366 53.6438 52.6365C53.5915 52.6744 53.5379 52.711 53.487 52.7502C53.1524 53.0129 52.7931 53.2494 52.4925 53.546C52.1998 53.8348 51.9594 54.1811 51.7098 54.5117C51.6183 54.6332 51.5465 54.7783 51.4981 54.9233C51.3766 55.2957 51.2695 55.6721 51.1662 56.0497C51.1283 56.1882 51.0996 56.332 51.0957 56.4744C51.0839 56.8782 51.1584 57.2676 51.2472 57.6648C51.3544 58.1444 51.5765 58.556 51.8261 58.9506C52.0796 59.3492 52.405 59.7007 52.7121 60.0626C52.8153 60.1842 52.9447 60.2939 53.0832 60.3697C53.5928 60.652 54.0907 60.946 54.6748 61.0845C55.2171 61.2139 55.7515 61.3249 56.2925 61.1812C56.6649 61.0819 57.0674 61.0649 57.4006 60.8219C57.7142 60.5945 58.0892 60.439 58.3636 60.175C59.0105 59.5504 59.6312 58.8971 59.8886 57.9915C60.0101 57.5642 60.2009 57.1526 60.1277 56.6874Z"
     fill="#00D1FF"
     id="path52" />
  <path
     d="M59.2485 56.3711C59.2485 56.6834 59.2694 56.9984 59.2419 57.308C59.2223 57.5289 59.1413 57.7445 59.0773 57.9601C58.9427 58.4201 58.6356 58.7742 58.3534 59.1466C57.9169 59.7203 57.3276 60.0626 56.6664 60.2782C56.2652 60.4089 55.8392 60.4546 55.4093 60.3867C55.1754 60.3501 54.9376 60.3475 54.7024 60.32C54.4097 60.2861 54.1523 60.1567 53.8896 60.0286C53.1422 59.6693 52.741 59.0094 52.3241 58.3404C51.8341 57.555 51.8616 56.7396 52.0641 55.8942C52.1386 55.5806 52.2222 55.2696 52.3072 54.9586C52.3255 54.8919 52.3529 54.824 52.3934 54.7691C52.7776 54.2595 53.1931 53.7904 53.7315 53.4245C54.0516 53.2062 54.3901 53.1396 54.7481 53.0638C55.0983 52.9893 55.4498 52.9253 55.8026 52.9671C56.2391 53.0181 56.6886 53.0625 57.0976 53.2062C57.4177 53.3186 57.6882 53.5747 57.9757 53.7734C58.0946 53.8557 58.1966 53.9628 58.3142 54.0491C58.7767 54.3836 58.9623 54.8867 59.1648 55.3885C59.2955 55.7138 59.2903 56.0392 59.2485 56.3711Z"
     fill="#00D1FF"
     id="path54" />
  <defs
     id="defs73">
    <filter
       id="filter0_d_124_415"
       x="0.1427"
       y="0.141922"
       width="110.737"
       height="110.737"
       filterUnits="userSpaceOnUse"
       color-interpolation-filters="sRGB">
      <feFlood
         flood-opacity="0"
         result="BackgroundImageFix"
         id="feFlood56" />
      <feColorMatrix
         in="SourceAlpha"
         type="matrix"
         values="0 0 0 0 0 0 0 0 0 0 0 0 0 0 0 0 0 0 127 0"
         result="hardAlpha"
         id="feColorMatrix58" />
      <feOffset
         id="feOffset60" />
      <feGaussianBlur
         stdDeviation="2"
         id="feGaussianBlur62" />
      <feComposite
         in2="hardAlpha"
         operator="out"
         id="feComposite64" />
      <feColorMatrix
         type="matrix"
         values="0 0 0 0 0.0627451 0 0 0 0 0.631373 0 0 0 0 0.992157 0 0 0 1 0"
         id="feColorMatrix66" />
      <feBlend
         mode="normal"
         in2="BackgroundImageFix"
         result="effect1_dropShadow_124_415"
         id="feBlend68" />
      <feBlend
         mode="normal"
         in="SourceGraphic"
         in2="effect1_dropShadow_124_415"
         result="shape"
         id="feBlend70" />
    </filter>
  </defs>
  <path
     style="fill:#000000;stroke:#00ffff;stroke-width:0.063854"
     d="M 27.451077,82.930445 C 14.057921,69.529963 6.4718856,61.894815 6.245151,61.587229 4.7155262,59.512157 4.0057694,57.127589 4.2117346,54.755563 4.3844086,52.766939 4.9892377,51.161845 6.1850386,49.518814 6.4162098,49.201185 12.341315,43.2286 23.779511,31.783352 L 41.025436,14.526796 h 1.372878 1.372878 L 25.792128,32.517674 C 6.7772764,51.54502 7.5448699,50.753846 6.9435608,51.945268 c -1.0689612,2.118018 -1.0864004,4.871925 -0.044479,7.023945 0.6553843,1.353654 -0.7813769,-0.125552 22.2111312,22.867291 15.188238,15.188464 21.366038,21.326426 21.685682,21.545846 0.245838,0.16874 0.474276,0.33058 0.50764,0.35961 0.03336,0.029 -0.627887,0.0528 -1.469446,0.0528 h -1.530106 z"
     id="path1661" />
  <path
     style="fill:#000000;stroke:#00ffff;stroke-width:0.063854"
     d="M 54.327037,100.44414 C 53.734845,100.28107 53.278574,100.05896 52.820614,99.710829 52.564539,99.51617 52.214379,99.253857 52.042479,99.127912 51.87058,99.001972 49.80157,96.976203 47.44468,94.626201 36.140249,83.354825 20.268008,67.520812 20.220612,67.467704 20.191436,67.435011 20.081361,67.32206 19.976002,67.2167 L 19.720586,66.961284 19.46517,66.705868 c -0.10536,-0.105359 -0.218061,-0.215434 -0.250447,-0.24461 -0.03239,-0.02918 -0.142156,-0.139251 -0.243931,-0.24461 -0.231388,-0.239535 -0.309364,-0.317511 -0.548899,-0.548899 -0.105359,-0.101776 -0.220297,-0.216713 -0.255416,-0.255416 -0.03512,-0.0387 -0.150057,-0.153029 -0.255417,-0.254057 -0.105359,-0.101028 -0.234663,-0.232838 -0.287343,-0.292911 -0.05268,-0.06007 -0.163339,-0.168523 -0.24591,-0.241 -0.08257,-0.07248 -0.197508,-0.187339 -0.255416,-0.255247 -0.05791,-0.06791 -0.172845,-0.182846 -0.255416,-0.255416 -0.08257,-0.07257 -0.197509,-0.187508 -0.255417,-0.255416 -0.05791,-0.06791 -0.172845,-0.182846 -0.255416,-0.255416 -0.08257,-0.07257 -0.197508,-0.186321 -0.255416,-0.25278 -0.05791,-0.06646 -0.174607,-0.181395 -0.25933,-0.255416 -0.08472,-0.07402 -0.199662,-0.188973 -0.255417,-0.25545 -0.05575,-0.06648 -0.156934,-0.167047 -0.224843,-0.223489 -0.06791,-0.05644 -0.182846,-0.17018 -0.255416,-0.252751 -0.07257,-0.08257 -0.18503,-0.197508 -0.24991,-0.255416 -0.448259,-0.400084 -2.325256,-2.324233 -2.469701,-2.531741 -0.09779,-0.140479 -0.284096,-0.355987 -0.414022,-0.478906 -0.341371,-0.322961 -0.821145,-1.055803 -1.196109,-1.827026 l -0.326216,-0.670957 -0.02764,-0.842228 c -0.02152,-0.655679 -0.0037,-0.934161 0.08061,-1.25728 0.14585,-0.559183 0.444187,-1.247817 0.642902,-1.483976 0.08945,-0.106305 0.222889,-0.311566 0.296532,-0.456135 0.08798,-0.172705 2.764362,-2.890793 7.803747,-7.92534 4.218417,-4.214367 7.784499,-7.806049 7.924625,-7.981515 0.140126,-0.175467 5.168344,-5.224779 11.173817,-11.220694 l 10.919042,-10.901664 6.257697,0.0014 6.257696,0.0014 11.01833,10.995807 c 6.06008,6.047693 11.102334,11.110744 11.204999,11.251223 0.102671,0.140479 3.534845,3.606129 7.627053,7.701445 4.092208,4.095317 7.55532,7.598096 7.695799,7.783955 0.621906,0.822807 0.747219,1.009432 0.899879,1.340141 0.33239,0.720082 0.42571,1.222015 0.39692,2.134753 -0.0257,0.813734 -0.0328,0.848955 -0.28769,1.418038 -0.30956,0.691214 -0.804898,1.451713 -1.262719,1.938657 -0.181607,0.193159 -0.383315,0.432637 -0.448249,0.532174 -0.09572,0.14674 -3.415795,3.493071 -3.942598,3.973775 -0.07953,0.07257 -0.191977,0.187507 -0.249886,0.255416 -0.0579,0.06791 -0.17284,0.182845 -0.255416,0.255416 -0.08257,0.07257 -0.197507,0.187508 -0.255416,0.255416 -0.0579,0.06791 -0.172841,0.182846 -0.255417,0.255416 -0.08257,0.07257 -0.197507,0.187508 -0.255416,0.255417 -0.0579,0.06791 -0.17284,0.182845 -0.255416,0.255416 -0.08257,0.07257 -0.197507,0.187507 -0.255416,0.255416 -0.0579,0.06791 -0.17284,0.182845 -0.255416,0.255416 -0.08257,0.07257 -0.197507,0.187508 -0.255417,0.255416 -0.0579,0.06791 -0.17284,0.182846 -0.255416,0.255417 -0.08257,0.07257 -0.197507,0.187507 -0.255416,0.255416 -0.0579,0.06791 -0.17284,0.182769 -0.255416,0.255246 -0.08257,0.07248 -0.193229,0.177671 -0.245908,0.233763 -0.176908,0.188369 -0.509811,0.527832 -0.58083,0.592272 -0.05858,0.05316 -0.270141,0.268533 -0.488541,0.49735 -0.02644,0.0277 -5.320823,5.30864 -11.765293,11.735412 -6.44447,6.42677 -13.399853,13.364576 -15.456407,15.417343 -2.056554,2.052767 -3.887176,3.84047 -4.068048,3.97268 -0.180872,0.132216 -0.538374,0.401948 -0.794448,0.599417 -0.256074,0.197468 -0.537425,0.380575 -0.625225,0.406895 -0.0878,0.0263 -0.189006,0.0712 -0.224904,0.0997 -0.0359,0.0285 -0.279562,0.11117 -0.541476,0.18376 -0.380204,0.10536 -0.650249,0.13081 -1.33952,0.12625 -0.490393,-0.003 -0.992946,-0.0414 -1.163414,-0.0883 z M 52.576993,84.874909 c 0.132296,-0.09674 0.292341,-0.716781 0.291759,-1.130325 -1.92e-4,-0.158039 -0.05588,-0.409554 -0.123678,-0.558921 -0.08656,-0.190687 -0.945538,-1.110115 -2.883891,-3.086813 -3.529834,-3.599671 -20.538109,-20.521237 -20.846725,-20.740449 -0.219155,-0.155667 -0.278184,-0.165632 -0.975065,-0.164587 -0.80901,0.0012 -0.989481,0.05571 -1.055494,0.318726 -0.05548,0.221049 0.403211,2.665889 0.799269,4.260141 0.503421,2.026412 1.40248,4.342793 2.47278,6.370991 l 0.488598,0.925883 5.099168,5.074732 c 2.804543,2.791104 5.189757,5.134637 5.300475,5.207852 0.299451,0.198024 2.646758,1.315987 3.48979,1.662101 2.08194,0.854757 4.510522,1.521438 6.608894,1.814228 1.034931,0.1444 1.192641,0.149891 1.33412,0.04644 z m 7.695515,-0.174194 c 1.931698,-0.332073 2.764127,-0.536099 4.264672,-1.045278 2.131796,-0.723383 3.532409,-1.33619 4.977509,-2.177793 0.615495,-0.358458 0.73856,-0.476038 5.738852,-5.482983 l 5.109869,-5.116668 0.647889,-1.309008 c 1.117605,-2.258028 1.937676,-4.520181 2.407425,-6.640821 0.385895,-1.742114 0.640475,-3.203055 0.591889,-3.396639 -0.05682,-0.226383 -0.310152,-0.315131 -1.011295,-0.354283 -0.580395,-0.03241 -0.634192,-0.02463 -0.893957,0.129333 -0.38693,0.229328 -23.66985,23.529519 -23.854506,23.872198 -0.07902,0.146647 -0.143671,0.347136 -0.143671,0.445535 0,0.374715 0.14825,1.153358 0.236371,1.241483 0.132061,0.132063 0.26832,0.120397 1.928953,-0.165076 z m -3.92465,-1.181434 c 0.206078,-0.05368 0.578478,-0.202807 0.827555,-0.331402 0.400995,-0.207028 0.729975,-0.509383 2.872269,-2.63981 1.453188,-1.445132 2.401588,-2.434818 2.374795,-2.478171 -0.03272,-0.05294 -1.864672,-0.07218 -6.873224,-0.07218 -6.203654,0 -6.828614,0.0093 -6.828614,0.101689 0,0.123081 4.497784,4.665698 4.946971,4.996284 0.661768,0.487034 1.766412,0.661611 2.680248,0.423588 z M 69.822412,70.741808 c 3.513067,-3.534194 6.416129,-6.472278 6.451248,-6.529076 0.04135,-0.06687 0.06994,-2.723386 0.08111,-7.537424 0.01543,-6.643695 0.0064,-7.472013 -0.08447,-7.790194 -0.1003,-0.351033 -0.190296,-0.444732 -6.402663,-6.665967 -3.465513,-3.470461 -6.378525,-6.351077 -6.47336,-6.401368 -0.146876,-0.07789 -1.312467,-0.09144 -7.865854,-0.09144 -4.642847,0 -7.752044,0.02375 -7.841256,0.0599 -0.181709,0.07363 -12.753096,12.52463 -12.886711,12.763304 -0.08339,0.148954 -0.09774,1.146105 -0.110889,7.705871 -0.01411,7.038832 -0.0078,7.550409 0.09578,7.772264 0.120124,0.257265 12.542352,12.815251 12.881699,13.022479 0.182939,0.111715 0.542135,0.116991 7.979766,0.117219 l 7.788204,2.39e-4 z m 9.565755,-9.585594 c 2.887186,-2.911105 2.964514,-3.00587 3.139346,-3.847206 0.131903,-0.634737 0.12426,-1.075756 -0.02921,-1.684827 -0.229996,-0.912823 -0.488234,-1.237353 -2.995144,-3.764073 -1.144073,-1.153109 -2.130414,-2.123903 -2.191873,-2.15732 -0.106107,-0.05769 -0.111745,0.282603 -0.111745,6.741944 0,3.973309 0.02383,6.802702 0.0573,6.802702 0.03151,0 0.990606,-0.941049 2.131326,-2.09122 z M 33.842645,56.313342 v -6.870238 l -1.860086,1.809805 c -2.073402,2.017354 -2.605571,2.59757 -3.062284,3.338758 -0.566027,0.918593 -0.682184,1.477862 -0.511855,2.464459 0.0639,0.370152 0.160279,0.758065 0.214169,0.86203 0.07491,0.14452 5.130313,5.258265 5.204093,5.264151 0.0088,7.03e-4 0.01596,-3.090334 0.01596,-6.868965 z m -5.128909,-2.683077 c 0.18218,-0.136428 5.716755,-5.60515 19.240654,-19.011717 3.276754,-3.248325 4.615134,-4.616079 4.741163,-4.845221 0.207647,-0.377537 0.231743,-0.814352 0.07166,-1.29901 -0.167978,-0.508553 -0.165255,-0.507408 -0.994588,-0.41812 -1.89444,0.203962 -4.814519,0.949663 -6.805788,1.737996 -1.450297,0.574165 -3.439441,1.558606 -3.972535,1.966035 -0.228278,0.174467 -2.659475,2.567747 -5.402659,5.318401 l -4.987606,5.001189 -0.448673,0.893956 c -1.072311,2.13652 -1.997907,4.567192 -2.476388,6.503144 -0.234764,0.949858 -0.567068,2.836234 -0.637815,3.620655 -0.05411,0.599938 -0.02824,0.626226 0.682659,0.69381 0.619588,0.0589 0.717365,0.04299 0.989919,-0.161118 z m 54.615797,0.168259 c 0.526706,-0.07588 0.66223,-0.215216 0.620214,-0.637621 -0.14182,-1.425711 -0.476415,-3.060632 -0.974074,-4.759535 -0.590459,-2.015735 -1.058062,-3.193303 -2.028478,-5.108324 L 80.36477,42.143672 75.12651,36.901474 69.888255,31.659276 68.643102,31.016268 c -2.843201,-1.468253 -5.684223,-2.389851 -8.793871,-2.852642 -1.475705,-0.21962 -1.469631,-0.219908 -1.593029,0.07542 -0.141442,0.338519 -0.145893,1.141619 -0.0077,1.395795 0.0922,0.169616 3.69526,3.76536 21.520123,21.476397 1.430542,1.421402 2.666117,2.620537 2.745724,2.664745 0.174782,0.09705 0.278161,0.09991 0.815219,0.02254 z M 62.321551,34.826897 c 0,-0.108278 -3.935359,-4.111965 -4.453165,-4.530483 -0.759095,-0.61354 -1.630871,-0.952395 -2.45574,-0.954535 -0.49453,-0.0013 -1.290533,0.260206 -1.773148,0.582484 -0.442927,0.295775 -4.982713,4.745157 -4.982713,4.883487 0,0.07473 1.055769,0.08839 6.832383,0.08839 4.872714,0 6.832383,-0.01989 6.832383,-0.06934 z"
     id="path1663" />
  <path
     style="fill:#000000;stroke:#00ffff;stroke-width:0.063854"
     d="m 49.984199,72.317815 c -0.190217,-0.03697 -0.410833,-0.214617 -1.117446,-0.899814 -2.080941,-2.017873 -9.15489,-9.198002 -9.213276,-9.351568 -0.07028,-0.184851 -0.09179,-10.742505 -0.02274,-11.160321 0.04555,-0.275618 0.343926,-0.577443 5.418289,-5.480945 3.463069,-3.346463 4.219217,-4.066319 4.721323,-4.494722 l 0.374197,-0.319271 4.979426,-0.01955 c 2.91367,-0.01144 5.1945,0.0059 5.497851,0.04171 l 0.518423,0.06126 5.003171,5.031907 c 2.751744,2.767549 5.026506,5.093282 5.055026,5.168295 0.08098,0.212986 0.07055,10.987693 -0.01094,11.311344 -0.06163,0.24476 -0.524916,0.720382 -4.812516,4.940664 -2.609376,2.568408 -4.88736,4.777311 -5.062187,4.908674 -0.316159,0.237557 -0.322078,0.239067 -1.101301,0.280965 -1.044912,0.05618 -9.925592,0.04001 -10.227304,-0.01862 z M 63.90847,68.871639 c 1.603135,-1.577611 3.753013,-3.711135 4.777508,-4.741163 1.784087,-1.793725 1.8644,-1.884908 1.90261,-2.160122 0.02194,-0.158039 0.03138,-2.672292 0.02098,-5.58723 -0.01768,-4.952468 -0.02644,-5.314536 -0.133626,-5.523375 -0.06309,-0.122919 -2.18943,-2.314766 -4.7252,-4.870771 l -4.61049,-4.647283 -5.543537,0.0019 c -4.074035,0.0014 -5.580154,0.0215 -5.681675,0.07583 -0.119617,0.06402 -6.874403,6.617887 -8.904777,8.639911 l -0.718358,0.715404 v 5.606243 5.606244 l 1.326298,1.348461 c 0.729463,0.741654 2.859621,2.907466 4.733683,4.812917 2.44533,2.486285 3.463585,3.480752 3.606428,3.522177 0.110921,0.03217 2.597813,0.06027 5.617204,0.06348 l 5.418162,0.0058 z"
     id="path2395" />
  <path
     style="fill:#000000;stroke:#00ffff;stroke-width:0.063854"
     d="m 50.476011,70.407679 c -0.180421,-0.08196 -1.506626,-1.377974 -4.490806,-4.388563 -2.329127,-2.349738 -4.282784,-4.358455 -4.341461,-4.463814 -0.09676,-0.173741 -0.108309,-0.665554 -0.124131,-5.286688 l -0.01745,-5.095127 4.412283,-4.451054 c 2.426756,-2.448079 4.460376,-4.470584 4.519155,-4.494456 0.05878,-0.02387 2.299292,-0.04542 4.978915,-0.04789 4.112593,-0.0038 4.89892,0.0098 5.04447,0.087 0.09483,0.05032 2.176646,2.098122 4.626247,4.550671 l 4.45382,4.459181 v 5.032949 5.032949 l -1.655184,1.702583 c -0.910351,0.93642 -2.943304,2.984998 -4.517673,4.552394 l -2.862491,2.849811 -0.792237,0.03959 c -0.43573,0.02177 -2.633906,0.03895 -4.884834,0.03818 -3.820909,-0.0013 -4.109595,-0.0091 -4.348628,-0.117715 z m 10.099124,-0.950438 c 0.164443,-0.09228 6.928234,-6.975355 7.976556,-8.117234 l 0.3149,-0.343002 v -4.605686 c 0,-2.533127 -0.02342,-4.691889 -0.05205,-4.797248 -0.03662,-0.134764 -1.248328,-1.39041 -4.086659,-4.234833 -2.219036,-2.223799 -4.112203,-4.084346 -4.207038,-4.13455 -0.145158,-0.07684 -0.942966,-0.09121 -5.04447,-0.09086 -4.52786,3.9e-4 -4.883531,0.0083 -5.034669,0.111745 -0.328426,0.22482 -7.930889,7.974699 -8.095733,8.252715 l -0.170374,0.287343 -0.01823,4.597491 c -0.01002,2.528621 -0.0011,4.669328 0.01991,4.757127 0.0387,0.162008 5.056658,5.242899 7.257432,7.348456 l 1.129131,1.080278 h 4.906073 c 4.554019,0 4.920364,-0.008 5.105214,-0.111744 z"
     id="path3127" />
  <path
     style="fill:#000000;stroke:#00ffff;stroke-width:0.063854"
     d="m 54.796025,61.079381 c -0.606475,-0.14892 -1.610647,-0.64854 -1.970902,-0.980611 -0.409003,-0.377005 -1.026315,-1.219572 -1.273357,-1.738002 -0.439564,-0.922443 -0.507391,-1.769083 -0.220439,-2.751611 0.240143,-0.822252 0.270313,-0.890915 0.560241,-1.275032 0.529148,-0.701051 1.281851,-1.382735 1.975916,-1.789484 0.486325,-0.285005 1.526698,-0.382567 2.527954,-0.23706 0.728104,0.105811 1.642683,0.598209 2.292097,1.234038 0.50194,0.49144 0.976332,1.161761 1.165694,1.647136 0.141214,0.361961 0.248206,1.089537 0.239231,1.62684 -0.0084,0.502438 -0.284666,1.432926 -0.573081,1.930129 -0.337617,0.582022 -1.055117,1.339959 -1.619402,1.710667 -0.702474,0.461493 -0.829733,0.520761 -1.381014,0.643176 -0.596439,0.132442 -1.126655,0.12623 -1.722938,-0.02019 z m 1.73376,-0.736609 c 0.857015,-0.223224 1.563615,-0.743784 2.161556,-1.592439 0.454262,-0.644733 0.556043,-1.037693 0.575219,-2.220837 0.01528,-0.942822 0.0097,-0.991313 -0.163328,-1.407027 -0.251444,-0.604278 -0.461193,-0.866983 -1.071008,-1.341409 -0.786576,-0.611944 -0.974782,-0.689358 -1.973436,-0.811734 -0.436948,-0.05354 -0.659307,-0.04769 -1.098632,0.02892 -0.987688,0.172238 -1.209686,0.289467 -1.940546,1.02473 -0.595384,0.598971 -0.660655,0.689046 -0.780524,1.077134 -0.363941,1.178306 -0.421331,2.256149 -0.152138,2.857305 0.207672,0.463767 0.830564,1.362531 1.145501,1.65283 0.397252,0.366173 1.121101,0.697397 1.661274,0.760176 0.710424,0.08256 1.24778,0.07348 1.636062,-0.02765 z"
     id="path3129" />
  <path
     style="fill:#000000;stroke:#00ffff;stroke-width:0.063854"
     d="m 32.296881,58.102024 c -0.256101,-0.240573 -0.71497,-0.679958 -1.01971,-0.97641 L 30.7231,56.586609 31.660296,55.605836 c 0.515457,-0.539425 1.006318,-0.99891 1.090802,-1.021078 0.304576,-0.07992 0.325299,0.04285 0.325299,1.927148 v 1.732651 l -0.156939,0.147436 -0.156938,0.147436 z m 0.172902,-1.255929 c 0,-0.324874 0.02229,-0.715281 0.04953,-0.867572 l 0.04953,-0.276893 -0.199309,0.141921 c -0.264864,0.1886 -0.761774,0.710522 -0.761774,0.800117 0,0.08009 0.727615,0.793032 0.809399,0.793076 0.02895,1.6e-5 0.05263,-0.265776 0.05263,-0.590649 z"
     id="path3131" />
  <path
     style="fill:#000000;stroke:#00ffff;stroke-width:0.063854"
     d="m 35.253937,44.232856 c -0.224702,-0.09546 -0.463615,-0.247552 -0.530918,-0.337984 -0.08616,-0.115773 -0.172095,-0.480268 -0.290436,-1.231938 l -0.168067,-1.067517 1.139719,-1.141039 c 0.665151,-0.665922 1.202746,-1.153088 1.291087,-1.169975 0.109815,-0.02099 0.219539,0.03445 0.399688,0.201939 0.313352,0.291342 1.664397,1.839988 1.664397,1.907829 0,0.104573 -2.888695,3.016231 -2.990511,3.014283 -0.05853,-0.0011 -0.290257,-0.08014 -0.514959,-0.175598 z m 1.616174,-1.621681 c 0.582556,-0.603307 1.059193,-1.146678 1.059193,-1.207493 0,-0.06082 -0.11059,-0.250479 -0.245755,-0.421477 -0.254232,-0.321627 -1.015875,-1.041498 -1.101934,-1.041498 -0.06046,0 -1.336437,1.429218 -1.444946,1.618478 -0.05638,0.09835 -0.0696,0.371802 -0.04639,0.960176 0.01785,0.452467 0.04928,0.849893 0.06984,0.883169 0.06071,0.09823 0.429679,0.305069 0.544651,0.305327 0.05838,1.34e-4 0.58278,-0.493376 1.165337,-1.096682 z"
     id="path3133" />
  <path
     style="fill:#000000;stroke:#00ffff;stroke-width:0.063854"
     d="m 40.044187,39.602 c -0.649086,-0.554051 -1.84791,-1.675111 -1.891149,-1.768477 -0.03178,-0.06862 0.304487,-0.43387 1.185897,-1.288106 0.67664,-0.655779 1.291561,-1.225136 1.366492,-1.265238 0.178217,-0.09538 1.88844,0.248246 2.128848,0.427736 0.156385,0.116758 0.236913,0.293159 0.429038,0.939833 l 0.09353,0.314795 -1.005671,1.015429 c -0.553119,0.558487 -1.225486,1.214659 -1.494149,1.45816 l -0.488479,0.442729 z m 0.671047,-0.682958 c 0.005,0 0.429038,-0.444347 0.942269,-0.987438 0.773253,-0.818242 0.933147,-1.020141 0.933147,-1.178295 0,-0.353896 -0.121964,-0.511106 -0.473819,-0.610748 -1.195855,-0.338655 -1.213524,-0.333102 -2.283786,0.717758 -0.450022,0.441863 -0.818222,0.849414 -0.818222,0.905669 0,0.106449 0.961847,1.089284 1.175932,1.201592 0.0759,0.03982 0.196926,0.04279 0.318848,0.0078 0.10808,-0.031 0.200614,-0.05636 0.205631,-0.05636 z"
     id="path3135" />
  <path
     style="fill:#000000;stroke:#00ffff;stroke-width:0.063854"
     d="m 53.710491,34.011476 c -0.08272,-0.06362 -0.140187,-0.16156 -0.127708,-0.217643 0.0284,-0.127642 1.630712,-1.883402 1.802889,-1.975548 0.111821,-0.05984 0.232957,0.04134 1.036374,0.865719 0.500365,0.513417 0.929827,0.996729 0.95436,1.074027 0.03281,0.103363 0.0068,0.17115 -0.09829,0.256249 -0.129761,0.105074 -0.293362,0.115578 -1.780062,0.114289 -1.481157,-0.0013 -1.651499,-0.01244 -1.787566,-0.117093 z m 2.599185,-0.616857 c 0.04486,-0.04486 -0.765078,-0.790151 -0.862999,-0.794115 -0.07783,-0.0032 -0.787612,0.771857 -0.787612,0.859989 0,0.05484 1.593492,-0.0088 1.650611,-0.06587 z"
     id="path3137" />
  <path
     style="fill:#000000;stroke:#00ffff;stroke-width:0.063854"
     d="m 69.203734,38.563988 c -0.747344,-0.686956 -1.41961,-1.334231 -1.493923,-1.43839 -0.116406,-0.163157 -0.127321,-0.231145 -0.07883,-0.491012 0.07352,-0.393971 0.300898,-0.840429 0.501283,-0.984278 0.112613,-0.08084 0.413556,-0.142766 1.021665,-0.21023 0.474116,-0.0526 0.942041,-0.09591 1.039833,-0.09625 0.143348,-4.95e-4 0.400382,0.211774 1.326387,1.095389 0.638547,0.609316 1.165599,1.163804 1.186904,1.248689 0.02724,0.108529 -0.0055,0.200314 -0.113159,0.317374 -0.292798,0.318324 -1.920531,1.807717 -1.975625,1.807717 -0.03065,0 -0.667196,-0.562055 -1.41454,-1.249011 z m 2.089311,-0.182415 0.702394,-0.663879 -0.86203,-0.862455 -0.862029,-0.862455 -0.734322,0.123017 c -0.403877,0.06766 -0.797234,0.149973 -0.874127,0.182918 -0.134397,0.05758 -0.274077,0.394351 -0.27489,0.662757 -4.18e-4,0.138412 1.963515,2.079296 2.106828,2.082101 0.05268,10e-4 0.411859,-0.296871 0.798176,-0.662004 z"
     id="path3139" />
  <path
     style="fill:#000000;stroke:#00ffff;stroke-width:0.031927"
     d="m 75.005832,44.433394 c -0.0418,-0.0065 -0.322878,-0.27375 -0.689545,-0.655517 -0.995963,-1.036975 -2.134946,-2.266965 -2.169896,-2.343274 -0.02405,-0.05252 -0.01994,-0.0892 0.01612,-0.143671 0.05815,-0.08785 1.508348,-1.702246 1.720038,-1.914798 0.193503,-0.19429 0.324506,-0.223687 0.524224,-0.117632 0.178521,0.0948 2.256847,2.124939 2.312214,2.258605 0.0401,0.09681 -0.01016,0.722531 -0.146482,1.823828 -0.0831,0.671307 -0.1716,0.766061 -0.889495,0.952347 -0.593725,0.154065 -0.591288,0.153561 -0.677178,0.140112 z m 0.337832,-0.850072 c 0.129438,-0.02469 0.255549,-0.06509 0.280247,-0.08979 0.0247,-0.0247 0.08619,-0.266685 0.136653,-0.537749 0.05046,-0.271064 0.12332,-0.626692 0.161907,-0.790284 0.04291,-0.181922 0.06242,-0.338718 0.05022,-0.403727 -0.01552,-0.08276 -0.120476,-0.204999 -0.47408,-0.552184 -0.609557,-0.598492 -1.10932,-1.058765 -1.194089,-1.099735 -0.137155,-0.06629 -0.211003,-0.005 -0.664949,0.552124 -0.245778,0.301626 -0.471917,0.585993 -0.502531,0.631927 -0.112456,0.16873 -0.08259,0.232825 0.303096,0.650538 1.024969,1.110072 1.593124,1.684643 1.664995,1.683796 0.0018,-2.1e-5 0.109095,-0.02023 0.238532,-0.04492 z"
     id="path3141" />
  <path
     style="fill:#000000;stroke:#00ffff;stroke-width:0.031927"
     d="m 78.060887,58.452721 c -0.199581,-0.22731 -0.195428,-0.186442 -0.192081,-1.890083 0.0017,-0.876833 0.01634,-1.601741 0.03359,-1.665815 0.03311,-0.122976 0.235681,-0.38143 0.298957,-0.38143 0.06573,0 1.999329,1.96362 1.999329,2.03037 0,0.06409 -1.938289,2.024362 -2.001656,2.024362 -0.01928,0 -0.08145,-0.05283 -0.138141,-0.117404 z M 78.9842,57.038702 c 0.23007,-0.245247 0.418309,-0.472394 0.418309,-0.504771 0,-0.05893 -0.659515,-0.651188 -0.81954,-0.735966 l -0.08003,-0.0424 0.02675,0.217998 c 0.03332,0.271533 0.03474,0.971631 0.0026,1.279572 -0.01406,0.134624 -0.01208,0.231471 0.0047,0.231471 0.01589,0 0.217132,-0.200657 0.447202,-0.445905 z"
     id="path3143" />
  <path
     style="fill:#000000;stroke:#00ffff;stroke-width:0.031927"
     d="m 73.155469,72.86545 c -0.920225,-0.921637 -1.03049,-1.043016 -1.051161,-1.157101 -0.01877,-0.103592 -0.0087,-0.152544 0.05374,-0.261461 0.06986,-0.121841 2.745872,-2.720998 2.927165,-2.8431 0.06757,-0.04551 0.09415,-0.04045 0.3785,0.07208 0.326796,0.129322 0.546446,0.275974 0.865815,0.578068 0.138926,0.131411 0.199778,0.212784 0.200316,0.267865 4.25e-4,0.04351 0.04177,0.471526 0.09188,0.951138 0.06846,0.655269 0.08346,0.905251 0.06035,1.005702 -0.02749,0.11949 -0.153193,0.254818 -1.184408,1.275069 -0.901345,0.891762 -1.171205,1.141391 -1.233894,1.141391 -0.06279,0 -0.303815,-0.22392 -1.108306,-1.029647 z m 1.955253,-0.606613 c 0.440508,-0.44376 0.726968,-0.757916 0.763247,-0.837043 0.05465,-0.119195 0.05569,-0.168159 0.01754,-0.830103 -0.02508,-0.435177 -0.05626,-0.733874 -0.08176,-0.783253 -0.144069,-0.278956 -0.612255,-0.487569 -0.83534,-0.372207 -0.12471,0.06449 -1.794533,1.808608 -1.87451,1.957911 -0.07885,0.147207 -0.0757,0.364466 0.0072,0.495392 0.03511,0.05545 0.305785,0.320698 0.60151,0.589451 0.387778,0.35241 0.559882,0.488863 0.617311,0.489435 0.06183,6.16e-4 0.23721,-0.157952 0.784799,-0.709583 z"
     id="path3145" />
  <path
     style="fill:#000000;stroke:#00ffff;stroke-width:0.031927"
     d="m 70.015964,77.80198 c -0.11414,-0.02511 -0.437401,-0.08681 -0.718358,-0.137106 -0.280958,-0.0503 -0.591947,-0.122168 -0.691087,-0.159713 -0.348723,-0.132063 -0.77956,-0.457409 -0.888039,-0.6706 -0.06594,-0.129594 -0.12897,-0.492001 -0.12897,-0.741564 v -0.168432 l 0.344522,-0.336285 c 0.316652,-0.309081 2.090408,-1.978632 2.439358,-2.29605 0.09286,-0.08447 0.173689,-0.132385 0.212413,-0.125923 0.0732,0.01222 2.185385,1.814254 2.26003,1.928178 0.03117,0.04757 0.04295,0.107724 0.03067,0.156649 -0.01096,0.04368 -0.282022,0.363455 -0.602352,0.710609 -0.320331,0.347153 -0.818431,0.888019 -1.106889,1.201923 -0.288459,0.313905 -0.568527,0.597603 -0.622376,0.63044 -0.113797,0.06939 -0.240702,0.07128 -0.52892,0.0079 z m 0.48333,-1.019606 c 0.326564,-0.319347 1.464218,-1.54323 1.464218,-1.575199 0,-0.02541 -0.937705,-0.828632 -1.225514,-1.049753 -0.14977,-0.115066 -0.24373,-0.09292 -0.508142,0.119793 -0.479558,0.385784 -1.056234,0.911482 -1.258635,1.147371 -0.240491,0.280282 -0.551609,0.73122 -0.551609,0.79951 0,0.06779 0.348216,0.641074 0.401908,0.661678 0.0724,0.02778 1.096245,0.101311 1.299338,0.09332 0.178951,-0.007 0.190754,-0.01318 0.378436,-0.196715 z"
     id="path3147" />
  <path
     style="fill:#000000;stroke:#00ffff;stroke-width:0.031927"
     d="m 55.336757,81.247553 c -0.155646,-0.08508 -1.750984,-1.653175 -1.844857,-1.813357 -0.07569,-0.129149 -0.07801,-0.145237 -0.03535,-0.244599 0.06509,-0.151602 0.298097,-0.371816 0.433083,-0.409312 0.145052,-0.04029 3.003754,-0.042 3.176635,-0.0019 0.274169,0.0636 0.531764,0.342182 0.485788,0.525368 -0.02175,0.08666 -1.528855,1.676615 -1.775548,1.873156 -0.149482,0.119093 -0.305313,0.144124 -0.439754,0.07064 z m 0.577697,-1.132527 c 0.222649,-0.25783 0.404804,-0.473337 0.40479,-0.478905 -1.4e-5,-0.0056 -0.395113,-0.01012 -0.877998,-0.01012 -0.482884,0 -0.874377,0.0094 -0.869985,0.02098 0.02556,0.06715 0.898576,0.984169 0.916571,0.962765 0.01199,-0.01427 0.203973,-0.23689 0.426622,-0.49472 z"
     id="path3149" />
  <path
     style="fill:#000000;stroke:#00ffff;stroke-width:0.031927"
     d="m 36.052633,73.314688 c -0.820118,-0.756042 -1.692166,-1.61572 -1.749552,-1.724733 -0.06256,-0.118836 -0.05743,-0.2686 0.03198,-0.934206 0.04255,-0.316762 0.09149,-0.687971 0.108752,-0.824908 0.05717,-0.453442 0.287458,-0.772262 0.774185,-1.071797 l 0.251623,-0.15485 0.232122,0.0404 c 0.444197,0.07732 0.529169,0.138369 1.209141,0.868791 0.305513,0.328181 0.860781,0.916376 1.233928,1.307101 0.49716,0.52058 0.678449,0.730866 0.678449,0.786963 0,0.147533 -1.944738,2.287645 -2.078803,2.287645 -0.03631,0 -0.324418,-0.241707 -0.691825,-0.580409 z m 0.788999,-0.424201 c 0.08545,-0.0433 0.219765,-0.147462 0.298482,-0.231471 0.328733,-0.350832 0.821118,-0.964883 0.821118,-1.024012 0,-0.08598 -1.821105,-2.002533 -2.019139,-2.124968 -0.286044,-0.176847 -0.543723,-0.143281 -0.648356,0.08446 -0.02591,0.0564 -0.08848,0.467076 -0.139606,0.916339 -0.08401,0.738227 -0.08823,0.823549 -0.04528,0.915052 0.04711,0.100345 1.348928,1.491932 1.424156,1.522355 0.08149,0.03296 0.157803,0.01868 0.308624,-0.05775 z"
     id="path3151" />
  <path
     style="fill:#000000;stroke:#00ffff;stroke-width:0.031927"
     d="m 40.576488,77.793004 c -0.149229,-0.04775 -0.235955,-0.124718 -0.73162,-0.64932 -0.269614,-0.285355 -0.752376,-0.794044 -1.072806,-1.130422 -0.64796,-0.680209 -0.708908,-0.765607 -0.649234,-0.909674 0.03515,-0.08486 0.478695,-0.511234 1.714993,-1.648605 0.480256,-0.441826 0.514098,-0.454945 0.744618,-0.288645 0.07726,0.05574 0.717626,0.667826 1.423028,1.360192 1.435259,1.408737 1.433252,1.406201 1.409384,1.781044 -0.0094,0.146926 -0.04332,0.260173 -0.13157,0.438742 -0.197426,0.399464 -0.477679,0.600278 -1.1875,0.850897 -0.219392,0.07746 -0.393044,0.111742 -0.734321,0.144964 -0.245839,0.02393 -0.504447,0.0511 -0.574687,0.06038 -0.07024,0.0093 -0.164868,0.005 -0.210285,-0.0096 z m 0.848826,-0.868315 c 0.386317,-0.05474 0.746127,-0.119679 0.799578,-0.144319 0.133528,-0.06155 0.204682,-0.19638 0.254236,-0.481744 0.04118,-0.237112 0.04042,-0.244815 -0.03531,-0.35924 -0.08511,-0.128606 -1.83031,-1.839811 -1.969127,-1.930767 -0.05362,-0.03513 -0.115519,-0.04944 -0.162699,-0.03759 -0.07354,0.01846 -1.214126,1.079013 -1.272375,1.183097 -0.01578,0.0282 -0.01929,0.08091 -0.0078,0.117138 0.03104,0.09779 1.473203,1.666551 1.573235,1.711337 0.11013,0.04931 0.01729,0.05586 0.820245,-0.05791 z"
     id="path3153" />
</svg>
